<?xml version="1.0" encoding="us-ascii" standalone="no"?><svg xmlns="http://www.w3.org/2000/svg" xmlns:xlink="http://www.w3.org/1999/xlink" contentStyleType="text/css" height="810px" preserveAspectRatio="none" style="width:2784px;height:810px;background:#FFFFFF;" version="1.1" viewBox="0 0 2784 810" width="2784px" zoomAndPan="magnify"><defs/><g><text fill="#000000" font-family="sans-serif" font-size="14" font-weight="bold" lengthAdjust="spacing" textLength="262" x="1254" y="22.9951">mexOS Microkernel: Arch &amp; Core</text><!--cluster Arch (i686)--><g id="cluster_Arch (i686)"><path d="M795.5,86.2969 L884.5,86.2969 A3.75,3.75 0 0 1 887,88.7969 L894,108.5938 L1304.5,108.5938 A2.5,2.5 0 0 1 1307,111.0938 L1307,463.7969 A2.5,2.5 0 0 1 1304.5,466.2969 L795.5,466.2969 A2.5,2.5 0 0 1 793,463.7969 L793,88.7969 A2.5,2.5 0 0 1 795.5,86.2969 " fill="#ADD8E6" style="stroke:#000000;stroke-width:1.5;"/><line style="stroke:#000000;stroke-width:1.5;" x1="793" x2="894" y1="108.5938" y2="108.5938"/><text fill="#000000" font-family="sans-serif" font-size="14" font-weight="bold" lengthAdjust="spacing" textLength="88" x="797" y="101.292">Arch (i686)</text><text fill="#000000" font-family="sans-serif" font-size="14" font-style="italic" lengthAdjust="spacing" textLength="50" x="1029" y="123.5889">&#171;Arch&#187;</text></g><!--cluster Core--><g id="cluster_Core"><path d="M523.5,490.2969 L562.5,490.2969 A3.75,3.75 0 0 1 565,492.7969 L572,512.5938 L1508.5,512.5938 A2.5,2.5 0 0 1 1511,515.0938 L1511,706.7969 A2.5,2.5 0 0 1 1508.5,709.2969 L523.5,709.2969 A2.5,2.5 0 0 1 521,706.7969 L521,492.7969 A2.5,2.5 0 0 1 523.5,490.2969 " fill="#90EE90" style="stroke:#000000;stroke-width:1.5;"/><line style="stroke:#000000;stroke-width:1.5;" x1="521" x2="572" y1="512.5938" y2="512.5938"/><text fill="#000000" font-family="sans-serif" font-size="14" font-weight="bold" lengthAdjust="spacing" textLength="38" x="525" y="505.292">Core</text><text fill="#000000" font-family="sans-serif" font-size="14" font-style="italic" lengthAdjust="spacing" textLength="51" x="994.5" y="527.5889">&#171;Core&#187;</text></g><!--cluster UI--><g id="cluster_UI"><path d="M8.5,353.2969 L24.5,353.2969 A3.75,3.75 0 0 1 27,355.7969 L34,375.5938 L494.5,375.5938 A2.5,2.5 0 0 1 497,378.0938 L497,706.7969 A2.5,2.5 0 0 1 494.5,709.2969 L8.5,709.2969 A2.5,2.5 0 0 1 6,706.7969 L6,355.7969 A2.5,2.5 0 0 1 8.5,353.2969 " fill="#90EE90" style="stroke:#000000;stroke-width:1.5;"/><line style="stroke:#000000;stroke-width:1.5;" x1="6" x2="34" y1="375.5938" y2="375.5938"/><text fill="#000000" font-family="sans-serif" font-size="14" font-weight="bold" lengthAdjust="spacing" textLength="15" x="10" y="368.292">UI</text><text fill="#000000" font-family="sans-serif" font-size="14" font-style="italic" lengthAdjust="spacing" textLength="51" x="230" y="390.5889">&#171;Core&#187;</text></g><!--cluster Drivers--><g id="cluster_Drivers"><path d="M1333.5,43.2969 L1391.5,43.2969 A3.75,3.75 0 0 1 1394,45.7969 L1401,65.5938 L2547.5,65.5938 A2.5,2.5 0 0 1 2550,68.0938 L2550,326.7969 A2.5,2.5 0 0 1 2547.5,329.2969 L1333.5,329.2969 A2.5,2.5 0 0 1 1331,326.7969 L1331,45.7969 A2.5,2.5 0 0 1 1333.5,43.2969 " fill="#90EE90" style="stroke:#000000;stroke-width:1.5;"/><line style="stroke:#000000;stroke-width:1.5;" x1="1331" x2="1401" y1="65.5938" y2="65.5938"/><text fill="#000000" font-family="sans-serif" font-size="14" font-weight="bold" lengthAdjust="spacing" textLength="57" x="1335" y="58.292">Drivers</text><text fill="#000000" font-family="sans-serif" font-size="14" font-style="italic" lengthAdjust="spacing" textLength="51" x="1919" y="80.5889">&#171;Core&#187;</text></g><!--cluster Input--><g id="cluster_Input"><path d="M2378.5,102.2969 L2419.5,102.2969 A3.75,3.75 0 0 1 2422,104.7969 L2429,124.5938 L2523.5,124.5938 A2.5,2.5 0 0 1 2526,127.0938 L2526,302.7969 A2.5,2.5 0 0 1 2523.5,305.2969 L2378.5,305.2969 A2.5,2.5 0 0 1 2376,302.7969 L2376,104.7969 A2.5,2.5 0 0 1 2378.5,102.2969 " fill="none" style="stroke:#000000;stroke-width:1.5;"/><line style="stroke:#000000;stroke-width:1.5;" x1="2376" x2="2429" y1="124.5938" y2="124.5938"/><text fill="#000000" font-family="sans-serif" font-size="14" font-weight="bold" lengthAdjust="spacing" textLength="40" x="2380" y="117.292">Input</text></g><!--cluster Char--><g id="cluster_Char"><path d="M2110.5,102.2969 L2148.5,102.2969 A3.75,3.75 0 0 1 2151,104.7969 L2158,124.5938 L2349.5,124.5938 A2.5,2.5 0 0 1 2352,127.0938 L2352,302.7969 A2.5,2.5 0 0 1 2349.5,305.2969 L2110.5,305.2969 A2.5,2.5 0 0 1 2108,302.7969 L2108,104.7969 A2.5,2.5 0 0 1 2110.5,102.2969 " fill="none" style="stroke:#000000;stroke-width:1.5;"/><line style="stroke:#000000;stroke-width:1.5;" x1="2108" x2="2158" y1="124.5938" y2="124.5938"/><text fill="#000000" font-family="sans-serif" font-size="14" font-weight="bold" lengthAdjust="spacing" textLength="37" x="2112" y="117.292">Char</text></g><!--cluster Bus--><g id="cluster_Bus"><path d="M1857.5,102.2969 L1887.5,102.2969 A3.75,3.75 0 0 1 1890,104.7969 L1897,124.5938 L2081.5,124.5938 A2.5,2.5 0 0 1 2084,127.0938 L2084,302.7969 A2.5,2.5 0 0 1 2081.5,305.2969 L1857.5,305.2969 A2.5,2.5 0 0 1 1855,302.7969 L1855,104.7969 A2.5,2.5 0 0 1 1857.5,102.2969 " fill="none" style="stroke:#000000;stroke-width:1.5;"/><line style="stroke:#000000;stroke-width:1.5;" x1="1855" x2="1897" y1="124.5938" y2="124.5938"/><text fill="#000000" font-family="sans-serif" font-size="14" font-weight="bold" lengthAdjust="spacing" textLength="29" x="1859" y="117.292">Bus</text></g><!--cluster Video--><g id="cluster_Video"><path d="M1596.5,102.2969 L1642.5,102.2969 A3.75,3.75 0 0 1 1645,104.7969 L1652,124.5938 L1828.5,124.5938 A2.5,2.5 0 0 1 1831,127.0938 L1831,196.7969 A2.5,2.5 0 0 1 1828.5,199.2969 L1596.5,199.2969 A2.5,2.5 0 0 1 1594,196.7969 L1594,104.7969 A2.5,2.5 0 0 1 1596.5,102.2969 " fill="none" style="stroke:#000000;stroke-width:1.5;"/><line style="stroke:#000000;stroke-width:1.5;" x1="1594" x2="1652" y1="124.5938" y2="124.5938"/><text fill="#000000" font-family="sans-serif" font-size="14" font-weight="bold" lengthAdjust="spacing" textLength="45" x="1598" y="117.292">Video</text></g><!--cluster Storage--><g id="cluster_Storage"><path d="M1357.5,102.2969 L1420.5,102.2969 A3.75,3.75 0 0 1 1423,104.7969 L1430,124.5938 L1567.5,124.5938 A2.5,2.5 0 0 1 1570,127.0938 L1570,196.7969 A2.5,2.5 0 0 1 1567.5,199.2969 L1357.5,199.2969 A2.5,2.5 0 0 1 1355,196.7969 L1355,104.7969 A2.5,2.5 0 0 1 1357.5,102.2969 " fill="none" style="stroke:#000000;stroke-width:1.5;"/><line style="stroke:#000000;stroke-width:1.5;" x1="1355" x2="1430" y1="124.5938" y2="124.5938"/><text fill="#000000" font-family="sans-serif" font-size="14" font-weight="bold" lengthAdjust="spacing" textLength="62" x="1359" y="117.292">Storage</text></g><!--cluster Filesystem--><g id="cluster_Filesystem"><path d="M2576.5,86.2969 L2661.5,86.2969 A3.75,3.75 0 0 1 2664,88.7969 L2671,108.5938 L2774.5,108.5938 A2.5,2.5 0 0 1 2777,111.0938 L2777,302.7969 A2.5,2.5 0 0 1 2774.5,305.2969 L2576.5,305.2969 A2.5,2.5 0 0 1 2574,302.7969 L2574,88.7969 A2.5,2.5 0 0 1 2576.5,86.2969 " fill="#90EE90" style="stroke:#000000;stroke-width:1.5;"/><line style="stroke:#000000;stroke-width:1.5;" x1="2574" x2="2671" y1="108.5938" y2="108.5938"/><text fill="#000000" font-family="sans-serif" font-size="14" font-weight="bold" lengthAdjust="spacing" textLength="84" x="2578" y="101.292">Filesystem</text><text fill="#000000" font-family="sans-serif" font-size="14" font-style="italic" lengthAdjust="spacing" textLength="51" x="2654" y="123.5889">&#171;Core&#187;</text></g><!--entity boot.s--><g id="elem_boot.s"><rect fill="#F1F1F1" height="46.2969" rx="2.5" ry="2.5" style="stroke:#181818;stroke-width:0.5;" width="84" x="1066" y="137.2969"/><rect fill="#F1F1F1" height="10" style="stroke:#181818;stroke-width:0.5;" width="15" x="1130" y="142.2969"/><rect fill="#F1F1F1" height="2" style="stroke:#181818;stroke-width:0.5;" width="4" x="1128" y="144.2969"/><rect fill="#F1F1F1" height="2" style="stroke:#181818;stroke-width:0.5;" width="4" x="1128" y="148.2969"/><text fill="#000000" font-family="sans-serif" font-size="14" lengthAdjust="spacing" textLength="44" x="1081" y="170.292">boot.s</text></g><!--entity gdt_asm.s--><g id="elem_gdt_asm.s"><rect fill="#F1F1F1" height="46.2969" rx="2.5" ry="2.5" style="stroke:#181818;stroke-width:0.5;" width="111" x="808.5" y="137.2969"/><rect fill="#F1F1F1" height="10" style="stroke:#181818;stroke-width:0.5;" width="15" x="899.5" y="142.2969"/><rect fill="#F1F1F1" height="2" style="stroke:#181818;stroke-width:0.5;" width="4" x="897.5" y="144.2969"/><rect fill="#F1F1F1" height="2" style="stroke:#181818;stroke-width:0.5;" width="4" x="897.5" y="148.2969"/><text fill="#000000" font-family="sans-serif" font-size="14" lengthAdjust="spacing" textLength="71" x="823.5" y="170.292">gdt_asm.s</text></g><!--entity gdt.c--><g id="elem_gdt.c"><rect fill="#F1F1F1" height="46.2969" rx="2.5" ry="2.5" style="stroke:#181818;stroke-width:0.5;" width="75" x="1070.5" y="243.2969"/><rect fill="#F1F1F1" height="10" style="stroke:#181818;stroke-width:0.5;" width="15" x="1125.5" y="248.2969"/><rect fill="#F1F1F1" height="2" style="stroke:#181818;stroke-width:0.5;" width="4" x="1123.5" y="250.2969"/><rect fill="#F1F1F1" height="2" style="stroke:#181818;stroke-width:0.5;" width="4" x="1123.5" y="254.2969"/><text fill="#000000" font-family="sans-serif" font-size="14" lengthAdjust="spacing" textLength="35" x="1085.5" y="276.292">gdt.c</text></g><!--entity gdt.h--><g id="elem_gdt.h"><rect fill="#F1F1F1" height="46.2969" rx="2.5" ry="2.5" style="stroke:#181818;stroke-width:0.5;" width="76" x="955" y="137.2969"/><rect fill="#F1F1F1" height="10" style="stroke:#181818;stroke-width:0.5;" width="15" x="1011" y="142.2969"/><rect fill="#F1F1F1" height="2" style="stroke:#181818;stroke-width:0.5;" width="4" x="1009" y="144.2969"/><rect fill="#F1F1F1" height="2" style="stroke:#181818;stroke-width:0.5;" width="4" x="1009" y="148.2969"/><text fill="#000000" font-family="sans-serif" font-size="14" lengthAdjust="spacing" textLength="36" x="970" y="170.292">gdt.h</text></g><!--entity idt_asm.s--><g id="elem_idt_asm.s"><rect fill="#F1F1F1" height="46.2969" rx="2.5" ry="2.5" style="stroke:#181818;stroke-width:0.5;" width="105" x="1185.5" y="137.2969"/><rect fill="#F1F1F1" height="10" style="stroke:#181818;stroke-width:0.5;" width="15" x="1270.5" y="142.2969"/><rect fill="#F1F1F1" height="2" style="stroke:#181818;stroke-width:0.5;" width="4" x="1268.5" y="144.2969"/><rect fill="#F1F1F1" height="2" style="stroke:#181818;stroke-width:0.5;" width="4" x="1268.5" y="148.2969"/><text fill="#000000" font-family="sans-serif" font-size="14" lengthAdjust="spacing" textLength="65" x="1200.5" y="170.292">idt_asm.s</text></g><!--entity idt.c--><g id="elem_idt.c"><rect fill="#F1F1F1" height="46.2969" rx="2.5" ry="2.5" style="stroke:#181818;stroke-width:0.5;" width="69" x="1073.5" y="404.2969"/><rect fill="#F1F1F1" height="10" style="stroke:#181818;stroke-width:0.5;" width="15" x="1122.5" y="409.2969"/><rect fill="#F1F1F1" height="2" style="stroke:#181818;stroke-width:0.5;" width="4" x="1120.5" y="411.2969"/><rect fill="#F1F1F1" height="2" style="stroke:#181818;stroke-width:0.5;" width="4" x="1120.5" y="415.2969"/><text fill="#000000" font-family="sans-serif" font-size="14" lengthAdjust="spacing" textLength="29" x="1088.5" y="437.292">idt.c</text></g><!--entity idt.h--><g id="elem_idt.h"><rect fill="#F1F1F1" height="46.2969" rx="2.5" ry="2.5" style="stroke:#181818;stroke-width:0.5;" width="70" x="819" y="243.2969"/><rect fill="#F1F1F1" height="10" style="stroke:#181818;stroke-width:0.5;" width="15" x="869" y="248.2969"/><rect fill="#F1F1F1" height="2" style="stroke:#181818;stroke-width:0.5;" width="4" x="867" y="250.2969"/><rect fill="#F1F1F1" height="2" style="stroke:#181818;stroke-width:0.5;" width="4" x="867" y="254.2969"/><text fill="#000000" font-family="sans-serif" font-size="14" lengthAdjust="spacing" textLength="30" x="834" y="276.292">idt.h</text></g><!--entity arch.h--><g id="elem_arch.h"><rect fill="#F1F1F1" height="46.2969" rx="2.5" ry="2.5" style="stroke:#181818;stroke-width:0.5;" width="83" x="924.5" y="243.2969"/><rect fill="#F1F1F1" height="10" style="stroke:#181818;stroke-width:0.5;" width="15" x="987.5" y="248.2969"/><rect fill="#F1F1F1" height="2" style="stroke:#181818;stroke-width:0.5;" width="4" x="985.5" y="250.2969"/><rect fill="#F1F1F1" height="2" style="stroke:#181818;stroke-width:0.5;" width="4" x="985.5" y="254.2969"/><text fill="#000000" font-family="sans-serif" font-size="14" lengthAdjust="spacing" textLength="43" x="939.5" y="276.292">arch.h</text></g><!--entity kernel.c--><g id="elem_kernel.c"><rect fill="#F1F1F1" height="46.2969" rx="2.5" ry="2.5" style="stroke:#181818;stroke-width:0.5;" width="95" x="1060.5" y="541.2969"/><rect fill="#F1F1F1" height="10" style="stroke:#181818;stroke-width:0.5;" width="15" x="1135.5" y="546.2969"/><rect fill="#F1F1F1" height="2" style="stroke:#181818;stroke-width:0.5;" width="4" x="1133.5" y="548.2969"/><rect fill="#F1F1F1" height="2" style="stroke:#181818;stroke-width:0.5;" width="4" x="1133.5" y="552.2969"/><text fill="#000000" font-family="sans-serif" font-size="14" lengthAdjust="spacing" textLength="55" x="1075.5" y="574.292">kernel.c</text></g><!--entity kernel.h--><g id="elem_kernel.h"><rect fill="#F1F1F1" height="46.2969" rx="2.5" ry="2.5" style="stroke:#181818;stroke-width:0.5;" width="96" x="1191" y="541.2969"/><rect fill="#F1F1F1" height="10" style="stroke:#181818;stroke-width:0.5;" width="15" x="1267" y="546.2969"/><rect fill="#F1F1F1" height="2" style="stroke:#181818;stroke-width:0.5;" width="4" x="1265" y="548.2969"/><rect fill="#F1F1F1" height="2" style="stroke:#181818;stroke-width:0.5;" width="4" x="1265" y="552.2969"/><text fill="#000000" font-family="sans-serif" font-size="14" lengthAdjust="spacing" textLength="56" x="1206" y="574.292">kernel.h</text></g><!--entity elf.c--><g id="elem_elf.c"><rect fill="#F1F1F1" height="46.2969" rx="2.5" ry="2.5" style="stroke:#181818;stroke-width:0.5;" width="68" x="1322" y="541.2969"/><rect fill="#F1F1F1" height="10" style="stroke:#181818;stroke-width:0.5;" width="15" x="1370" y="546.2969"/><rect fill="#F1F1F1" height="2" style="stroke:#181818;stroke-width:0.5;" width="4" x="1368" y="548.2969"/><rect fill="#F1F1F1" height="2" style="stroke:#181818;stroke-width:0.5;" width="4" x="1368" y="552.2969"/><text fill="#000000" font-family="sans-serif" font-size="14" lengthAdjust="spacing" textLength="28" x="1337" y="574.292">elf.c</text></g><!--entity elf.h--><g id="elem_elf.h"><rect fill="#F1F1F1" height="46.2969" rx="2.5" ry="2.5" style="stroke:#181818;stroke-width:0.5;" width="69" x="1425.5" y="541.2969"/><rect fill="#F1F1F1" height="10" style="stroke:#181818;stroke-width:0.5;" width="15" x="1474.5" y="546.2969"/><rect fill="#F1F1F1" height="2" style="stroke:#181818;stroke-width:0.5;" width="4" x="1472.5" y="548.2969"/><rect fill="#F1F1F1" height="2" style="stroke:#181818;stroke-width:0.5;" width="4" x="1472.5" y="552.2969"/><text fill="#000000" font-family="sans-serif" font-size="14" lengthAdjust="spacing" textLength="29" x="1440.5" y="574.292">elf.h</text></g><!--entity initrd.h--><g id="elem_initrd.h"><rect fill="#F1F1F1" height="46.2969" rx="2.5" ry="2.5" style="stroke:#181818;stroke-width:0.5;" width="87" x="1154.5" y="647.2969"/><rect fill="#F1F1F1" height="10" style="stroke:#181818;stroke-width:0.5;" width="15" x="1221.5" y="652.2969"/><rect fill="#F1F1F1" height="2" style="stroke:#181818;stroke-width:0.5;" width="4" x="1219.5" y="654.2969"/><rect fill="#F1F1F1" height="2" style="stroke:#181818;stroke-width:0.5;" width="4" x="1219.5" y="658.2969"/><text fill="#000000" font-family="sans-serif" font-size="14" lengthAdjust="spacing" textLength="47" x="1169.5" y="680.292">initrd.h</text></g><!--entity syscall.c--><g id="elem_syscall.c"><rect fill="#F1F1F1" height="46.2969" rx="2.5" ry="2.5" style="stroke:#181818;stroke-width:0.5;" width="97" x="928.5" y="541.2969"/><rect fill="#F1F1F1" height="10" style="stroke:#181818;stroke-width:0.5;" width="15" x="1005.5" y="546.2969"/><rect fill="#F1F1F1" height="2" style="stroke:#181818;stroke-width:0.5;" width="4" x="1003.5" y="548.2969"/><rect fill="#F1F1F1" height="2" style="stroke:#181818;stroke-width:0.5;" width="4" x="1003.5" y="552.2969"/><text fill="#000000" font-family="sans-serif" font-size="14" lengthAdjust="spacing" textLength="57" x="943.5" y="574.292">syscall.c</text></g><!--entity syscall.h--><g id="elem_syscall.h"><rect fill="#F1F1F1" height="46.2969" rx="2.5" ry="2.5" style="stroke:#181818;stroke-width:0.5;" width="98" x="931" y="647.2969"/><rect fill="#F1F1F1" height="10" style="stroke:#181818;stroke-width:0.5;" width="15" x="1009" y="652.2969"/><rect fill="#F1F1F1" height="2" style="stroke:#181818;stroke-width:0.5;" width="4" x="1007" y="654.2969"/><rect fill="#F1F1F1" height="2" style="stroke:#181818;stroke-width:0.5;" width="4" x="1007" y="658.2969"/><text fill="#000000" font-family="sans-serif" font-size="14" lengthAdjust="spacing" textLength="58" x="946" y="680.292">syscall.h</text></g><!--entity log.c--><g id="elem_log.c"><rect fill="#F1F1F1" height="46.2969" rx="2.5" ry="2.5" style="stroke:#181818;stroke-width:0.5;" width="73" x="820.5" y="541.2969"/><rect fill="#F1F1F1" height="10" style="stroke:#181818;stroke-width:0.5;" width="15" x="873.5" y="546.2969"/><rect fill="#F1F1F1" height="2" style="stroke:#181818;stroke-width:0.5;" width="4" x="871.5" y="548.2969"/><rect fill="#F1F1F1" height="2" style="stroke:#181818;stroke-width:0.5;" width="4" x="871.5" y="552.2969"/><text fill="#000000" font-family="sans-serif" font-size="14" lengthAdjust="spacing" textLength="33" x="835.5" y="574.292">log.c</text></g><!--entity log.h--><g id="elem_log.h"><rect fill="#F1F1F1" height="46.2969" rx="2.5" ry="2.5" style="stroke:#181818;stroke-width:0.5;" width="74" x="822" y="647.2969"/><rect fill="#F1F1F1" height="10" style="stroke:#181818;stroke-width:0.5;" width="15" x="876" y="652.2969"/><rect fill="#F1F1F1" height="2" style="stroke:#181818;stroke-width:0.5;" width="4" x="874" y="654.2969"/><rect fill="#F1F1F1" height="2" style="stroke:#181818;stroke-width:0.5;" width="4" x="874" y="658.2969"/><text fill="#000000" font-family="sans-serif" font-size="14" lengthAdjust="spacing" textLength="34" x="837" y="680.292">log.h</text></g><!--entity string.c--><g id="elem_string.c"><rect fill="#F1F1F1" height="46.2969" rx="2.5" ry="2.5" style="stroke:#181818;stroke-width:0.5;" width="91" x="1276.5" y="647.2969"/><rect fill="#F1F1F1" height="10" style="stroke:#181818;stroke-width:0.5;" width="15" x="1347.5" y="652.2969"/><rect fill="#F1F1F1" height="2" style="stroke:#181818;stroke-width:0.5;" width="4" x="1345.5" y="654.2969"/><rect fill="#F1F1F1" height="2" style="stroke:#181818;stroke-width:0.5;" width="4" x="1345.5" y="658.2969"/><text fill="#000000" font-family="sans-serif" font-size="14" lengthAdjust="spacing" textLength="51" x="1291.5" y="680.292">string.c</text></g><!--entity string.h--><g id="elem_string.h"><rect fill="#F1F1F1" height="46.2969" rx="2.5" ry="2.5" style="stroke:#181818;stroke-width:0.5;" width="92" x="1403" y="647.2969"/><rect fill="#F1F1F1" height="10" style="stroke:#181818;stroke-width:0.5;" width="15" x="1475" y="652.2969"/><rect fill="#F1F1F1" height="2" style="stroke:#181818;stroke-width:0.5;" width="4" x="1473" y="654.2969"/><rect fill="#F1F1F1" height="2" style="stroke:#181818;stroke-width:0.5;" width="4" x="1473" y="658.2969"/><text fill="#000000" font-family="sans-serif" font-size="14" lengthAdjust="spacing" textLength="52" x="1418" y="680.292">string.h</text></g><!--entity console.c--><g id="elem_console.c"><rect fill="#F1F1F1" height="46.2969" rx="2.5" ry="2.5" style="stroke:#181818;stroke-width:0.5;" width="107" x="678.5" y="541.2969"/><rect fill="#F1F1F1" height="10" style="stroke:#181818;stroke-width:0.5;" width="15" x="765.5" y="546.2969"/><rect fill="#F1F1F1" height="2" style="stroke:#181818;stroke-width:0.5;" width="4" x="763.5" y="548.2969"/><rect fill="#F1F1F1" height="2" style="stroke:#181818;stroke-width:0.5;" width="4" x="763.5" y="552.2969"/><text fill="#000000" font-family="sans-serif" font-size="14" lengthAdjust="spacing" textLength="67" x="693.5" y="574.292">console.c</text></g><!--entity console.h--><g id="elem_console.h"><rect fill="#F1F1F1" height="46.2969" rx="2.5" ry="2.5" style="stroke:#181818;stroke-width:0.5;" width="108" x="679" y="647.2969"/><rect fill="#F1F1F1" height="10" style="stroke:#181818;stroke-width:0.5;" width="15" x="767" y="652.2969"/><rect fill="#F1F1F1" height="2" style="stroke:#181818;stroke-width:0.5;" width="4" x="765" y="654.2969"/><rect fill="#F1F1F1" height="2" style="stroke:#181818;stroke-width:0.5;" width="4" x="765" y="658.2969"/><text fill="#000000" font-family="sans-serif" font-size="14" lengthAdjust="spacing" textLength="68" x="694" y="680.292">console.h</text></g><!--entity sysmon.c--><g id="elem_sysmon.c"><rect fill="#F1F1F1" height="46.2969" rx="2.5" ry="2.5" style="stroke:#181818;stroke-width:0.5;" width="106" x="537" y="541.2969"/><rect fill="#F1F1F1" height="10" style="stroke:#181818;stroke-width:0.5;" width="15" x="623" y="546.2969"/><rect fill="#F1F1F1" height="2" style="stroke:#181818;stroke-width:0.5;" width="4" x="621" y="548.2969"/><rect fill="#F1F1F1" height="2" style="stroke:#181818;stroke-width:0.5;" width="4" x="621" y="552.2969"/><text fill="#000000" font-family="sans-serif" font-size="14" lengthAdjust="spacing" textLength="66" x="552" y="574.292">sysmon.c</text></g><!--entity sysmon.h--><g id="elem_sysmon.h"><rect fill="#F1F1F1" height="46.2969" rx="2.5" ry="2.5" style="stroke:#181818;stroke-width:0.5;" width="107" x="536.5" y="647.2969"/><rect fill="#F1F1F1" height="10" style="stroke:#181818;stroke-width:0.5;" width="15" x="623.5" y="652.2969"/><rect fill="#F1F1F1" height="2" style="stroke:#181818;stroke-width:0.5;" width="4" x="621.5" y="654.2969"/><rect fill="#F1F1F1" height="2" style="stroke:#181818;stroke-width:0.5;" width="4" x="621.5" y="658.2969"/><text fill="#000000" font-family="sans-serif" font-size="14" lengthAdjust="spacing" textLength="67" x="551.5" y="680.292">sysmon.h</text></g><!--entity basic.c--><g id="elem_basic.c"><rect fill="#F1F1F1" height="46.2969" rx="2.5" ry="2.5" style="stroke:#181818;stroke-width:0.5;" width="88" x="141" y="404.2969"/><rect fill="#F1F1F1" height="10" style="stroke:#181818;stroke-width:0.5;" width="15" x="209" y="409.2969"/><rect fill="#F1F1F1" height="2" style="stroke:#181818;stroke-width:0.5;" width="4" x="207" y="411.2969"/><rect fill="#F1F1F1" height="2" style="stroke:#181818;stroke-width:0.5;" width="4" x="207" y="415.2969"/><text fill="#000000" font-family="sans-serif" font-size="14" lengthAdjust="spacing" textLength="48" x="156" y="437.292">basic.c</text></g><!--entity basic.h--><g id="elem_basic.h"><rect fill="#F1F1F1" height="46.2969" rx="2.5" ry="2.5" style="stroke:#181818;stroke-width:0.5;" width="89" x="264.5" y="404.2969"/><rect fill="#F1F1F1" height="10" style="stroke:#181818;stroke-width:0.5;" width="15" x="333.5" y="409.2969"/><rect fill="#F1F1F1" height="2" style="stroke:#181818;stroke-width:0.5;" width="4" x="331.5" y="411.2969"/><rect fill="#F1F1F1" height="2" style="stroke:#181818;stroke-width:0.5;" width="4" x="331.5" y="415.2969"/><text fill="#000000" font-family="sans-serif" font-size="14" lengthAdjust="spacing" textLength="49" x="279.5" y="437.292">basic.h</text></g><!--entity shell.c--><g id="elem_shell.c"><rect fill="#F1F1F1" height="46.2969" rx="2.5" ry="2.5" style="stroke:#181818;stroke-width:0.5;" width="84" x="22" y="404.2969"/><rect fill="#F1F1F1" height="10" style="stroke:#181818;stroke-width:0.5;" width="15" x="86" y="409.2969"/><rect fill="#F1F1F1" height="2" style="stroke:#181818;stroke-width:0.5;" width="4" x="84" y="411.2969"/><rect fill="#F1F1F1" height="2" style="stroke:#181818;stroke-width:0.5;" width="4" x="84" y="415.2969"/><text fill="#000000" font-family="sans-serif" font-size="14" lengthAdjust="spacing" textLength="44" x="37" y="437.292">shell.c</text></g><!--entity shell.h--><g id="elem_shell.h"><rect fill="#F1F1F1" height="46.2969" rx="2.5" ry="2.5" style="stroke:#181818;stroke-width:0.5;" width="85" x="22.5" y="541.2969"/><rect fill="#F1F1F1" height="10" style="stroke:#181818;stroke-width:0.5;" width="15" x="87.5" y="546.2969"/><rect fill="#F1F1F1" height="2" style="stroke:#181818;stroke-width:0.5;" width="4" x="85.5" y="548.2969"/><rect fill="#F1F1F1" height="2" style="stroke:#181818;stroke-width:0.5;" width="4" x="85.5" y="552.2969"/><text fill="#000000" font-family="sans-serif" font-size="14" lengthAdjust="spacing" textLength="45" x="37.5" y="574.292">shell.h</text></g><!--entity editor.c--><g id="elem_editor.c"><rect fill="#F1F1F1" height="46.2969" rx="2.5" ry="2.5" style="stroke:#181818;stroke-width:0.5;" width="92" x="389" y="404.2969"/><rect fill="#F1F1F1" height="10" style="stroke:#181818;stroke-width:0.5;" width="15" x="461" y="409.2969"/><rect fill="#F1F1F1" height="2" style="stroke:#181818;stroke-width:0.5;" width="4" x="459" y="411.2969"/><rect fill="#F1F1F1" height="2" style="stroke:#181818;stroke-width:0.5;" width="4" x="459" y="415.2969"/><text fill="#000000" font-family="sans-serif" font-size="14" lengthAdjust="spacing" textLength="52" x="404" y="437.292">editor.c</text></g><!--entity editor.h--><g id="elem_editor.h"><rect fill="#F1F1F1" height="46.2969" rx="2.5" ry="2.5" style="stroke:#181818;stroke-width:0.5;" width="93" x="142.5" y="541.2969"/><rect fill="#F1F1F1" height="10" style="stroke:#181818;stroke-width:0.5;" width="15" x="215.5" y="546.2969"/><rect fill="#F1F1F1" height="2" style="stroke:#181818;stroke-width:0.5;" width="4" x="213.5" y="548.2969"/><rect fill="#F1F1F1" height="2" style="stroke:#181818;stroke-width:0.5;" width="4" x="213.5" y="552.2969"/><text fill="#000000" font-family="sans-serif" font-size="14" lengthAdjust="spacing" textLength="53" x="157.5" y="574.292">editor.h</text></g><!--entity tui.c--><g id="elem_tui.c"><rect fill="#F1F1F1" height="46.2969" rx="2.5" ry="2.5" style="stroke:#181818;stroke-width:0.5;" width="69" x="270.5" y="541.2969"/><rect fill="#F1F1F1" height="10" style="stroke:#181818;stroke-width:0.5;" width="15" x="319.5" y="546.2969"/><rect fill="#F1F1F1" height="2" style="stroke:#181818;stroke-width:0.5;" width="4" x="317.5" y="548.2969"/><rect fill="#F1F1F1" height="2" style="stroke:#181818;stroke-width:0.5;" width="4" x="317.5" y="552.2969"/><text fill="#000000" font-family="sans-serif" font-size="14" lengthAdjust="spacing" textLength="29" x="285.5" y="574.292">tui.c</text></g><!--entity tui.h--><g id="elem_tui.h"><rect fill="#F1F1F1" height="46.2969" rx="2.5" ry="2.5" style="stroke:#181818;stroke-width:0.5;" width="70" x="375" y="541.2969"/><rect fill="#F1F1F1" height="10" style="stroke:#181818;stroke-width:0.5;" width="15" x="425" y="546.2969"/><rect fill="#F1F1F1" height="2" style="stroke:#181818;stroke-width:0.5;" width="4" x="423" y="548.2969"/><rect fill="#F1F1F1" height="2" style="stroke:#181818;stroke-width:0.5;" width="4" x="423" y="552.2969"/><text fill="#000000" font-family="sans-serif" font-size="14" lengthAdjust="spacing" textLength="30" x="390" y="574.292">tui.h</text></g><!--entity vterm.c--><g id="elem_vterm.c"><rect fill="#F1F1F1" height="46.2969" rx="2.5" ry="2.5" style="stroke:#181818;stroke-width:0.5;" width="91" x="143.5" y="647.2969"/><rect fill="#F1F1F1" height="10" style="stroke:#181818;stroke-width:0.5;" width="15" x="214.5" y="652.2969"/><rect fill="#F1F1F1" height="2" style="stroke:#181818;stroke-width:0.5;" width="4" x="212.5" y="654.2969"/><rect fill="#F1F1F1" height="2" style="stroke:#181818;stroke-width:0.5;" width="4" x="212.5" y="658.2969"/><text fill="#000000" font-family="sans-serif" font-size="14" lengthAdjust="spacing" textLength="51" x="158.5" y="680.292">vterm.c</text></g><!--entity vterm.h--><g id="elem_vterm.h"><rect fill="#F1F1F1" height="46.2969" rx="2.5" ry="2.5" style="stroke:#181818;stroke-width:0.5;" width="92" x="270" y="647.2969"/><rect fill="#F1F1F1" height="10" style="stroke:#181818;stroke-width:0.5;" width="15" x="342" y="652.2969"/><rect fill="#F1F1F1" height="2" style="stroke:#181818;stroke-width:0.5;" width="4" x="340" y="654.2969"/><rect fill="#F1F1F1" height="2" style="stroke:#181818;stroke-width:0.5;" width="4" x="340" y="658.2969"/><text fill="#000000" font-family="sans-serif" font-size="14" lengthAdjust="spacing" textLength="52" x="285" y="680.292">vterm.h</text></g><!--entity keyboard.c--><g id="elem_keyboard.c"><rect fill="#F1F1F1" height="46.2969" rx="2.5" ry="2.5" style="stroke:#181818;stroke-width:0.5;" width="116" x="2393" y="137.2969"/><rect fill="#F1F1F1" height="10" style="stroke:#181818;stroke-width:0.5;" width="15" x="2489" y="142.2969"/><rect fill="#F1F1F1" height="2" style="stroke:#181818;stroke-width:0.5;" width="4" x="2487" y="144.2969"/><rect fill="#F1F1F1" height="2" style="stroke:#181818;stroke-width:0.5;" width="4" x="2487" y="148.2969"/><text fill="#000000" font-family="sans-serif" font-size="14" lengthAdjust="spacing" textLength="76" x="2408" y="170.292">keyboard.c</text></g><!--entity keyboard.h--><g id="elem_keyboard.h"><rect fill="#F1F1F1" height="46.2969" rx="2.5" ry="2.5" style="stroke:#181818;stroke-width:0.5;" width="117" x="2392.5" y="243.2969"/><rect fill="#F1F1F1" height="10" style="stroke:#181818;stroke-width:0.5;" width="15" x="2489.5" y="248.2969"/><rect fill="#F1F1F1" height="2" style="stroke:#181818;stroke-width:0.5;" width="4" x="2487.5" y="250.2969"/><rect fill="#F1F1F1" height="2" style="stroke:#181818;stroke-width:0.5;" width="4" x="2487.5" y="254.2969"/><text fill="#000000" font-family="sans-serif" font-size="14" lengthAdjust="spacing" textLength="77" x="2407.5" y="276.292">keyboard.h</text></g><!--entity serial.c--><g id="elem_serial.c"><rect fill="#F1F1F1" height="46.2969" rx="2.5" ry="2.5" style="stroke:#181818;stroke-width:0.5;" width="88" x="2124" y="137.2969"/><rect fill="#F1F1F1" height="10" style="stroke:#181818;stroke-width:0.5;" width="15" x="2192" y="142.2969"/><rect fill="#F1F1F1" height="2" style="stroke:#181818;stroke-width:0.5;" width="4" x="2190" y="144.2969"/><rect fill="#F1F1F1" height="2" style="stroke:#181818;stroke-width:0.5;" width="4" x="2190" y="148.2969"/><text fill="#000000" font-family="sans-serif" font-size="14" lengthAdjust="spacing" textLength="48" x="2139" y="170.292">serial.c</text></g><!--entity serial.h--><g id="elem_serial.h"><rect fill="#F1F1F1" height="46.2969" rx="2.5" ry="2.5" style="stroke:#181818;stroke-width:0.5;" width="89" x="2247.5" y="137.2969"/><rect fill="#F1F1F1" height="10" style="stroke:#181818;stroke-width:0.5;" width="15" x="2316.5" y="142.2969"/><rect fill="#F1F1F1" height="2" style="stroke:#181818;stroke-width:0.5;" width="4" x="2314.5" y="144.2969"/><rect fill="#F1F1F1" height="2" style="stroke:#181818;stroke-width:0.5;" width="4" x="2314.5" y="148.2969"/><text fill="#000000" font-family="sans-serif" font-size="14" lengthAdjust="spacing" textLength="49" x="2262.5" y="170.292">serial.h</text></g><!--entity rtc.c--><g id="elem_rtc.c"><rect fill="#F1F1F1" height="46.2969" rx="2.5" ry="2.5" style="stroke:#181818;stroke-width:0.5;" width="70" x="2133" y="243.2969"/><rect fill="#F1F1F1" height="10" style="stroke:#181818;stroke-width:0.5;" width="15" x="2183" y="248.2969"/><rect fill="#F1F1F1" height="2" style="stroke:#181818;stroke-width:0.5;" width="4" x="2181" y="250.2969"/><rect fill="#F1F1F1" height="2" style="stroke:#181818;stroke-width:0.5;" width="4" x="2181" y="254.2969"/><text fill="#000000" font-family="sans-serif" font-size="14" lengthAdjust="spacing" textLength="30" x="2148" y="276.292">rtc.c</text></g><!--entity rtc.h--><g id="elem_rtc.h"><rect fill="#F1F1F1" height="46.2969" rx="2.5" ry="2.5" style="stroke:#181818;stroke-width:0.5;" width="71" x="2238.5" y="243.2969"/><rect fill="#F1F1F1" height="10" style="stroke:#181818;stroke-width:0.5;" width="15" x="2289.5" y="248.2969"/><rect fill="#F1F1F1" height="2" style="stroke:#181818;stroke-width:0.5;" width="4" x="2287.5" y="250.2969"/><rect fill="#F1F1F1" height="2" style="stroke:#181818;stroke-width:0.5;" width="4" x="2287.5" y="254.2969"/><text fill="#000000" font-family="sans-serif" font-size="14" lengthAdjust="spacing" textLength="31" x="2253.5" y="276.292">rtc.h</text></g><!--entity pci.c--><g id="elem_pci.c"><rect fill="#F1F1F1" height="46.2969" rx="2.5" ry="2.5" style="stroke:#181818;stroke-width:0.5;" width="72" x="1875" y="137.2969"/><rect fill="#F1F1F1" height="10" style="stroke:#181818;stroke-width:0.5;" width="15" x="1927" y="142.2969"/><rect fill="#F1F1F1" height="2" style="stroke:#181818;stroke-width:0.5;" width="4" x="1925" y="144.2969"/><rect fill="#F1F1F1" height="2" style="stroke:#181818;stroke-width:0.5;" width="4" x="1925" y="148.2969"/><text fill="#000000" font-family="sans-serif" font-size="14" lengthAdjust="spacing" textLength="32" x="1890" y="170.292">pci.c</text></g><!--entity pci.h--><g id="elem_pci.h"><rect fill="#F1F1F1" height="46.2969" rx="2.5" ry="2.5" style="stroke:#181818;stroke-width:0.5;" width="73" x="1982.5" y="137.2969"/><rect fill="#F1F1F1" height="10" style="stroke:#181818;stroke-width:0.5;" width="15" x="2035.5" y="142.2969"/><rect fill="#F1F1F1" height="2" style="stroke:#181818;stroke-width:0.5;" width="4" x="2033.5" y="144.2969"/><rect fill="#F1F1F1" height="2" style="stroke:#181818;stroke-width:0.5;" width="4" x="2033.5" y="148.2969"/><text fill="#000000" font-family="sans-serif" font-size="14" lengthAdjust="spacing" textLength="33" x="1997.5" y="170.292">pci.h</text></g><!--entity acpi.c--><g id="elem_acpi.c"><rect fill="#F1F1F1" height="46.2969" rx="2.5" ry="2.5" style="stroke:#181818;stroke-width:0.5;" width="80" x="1871" y="243.2969"/><rect fill="#F1F1F1" height="10" style="stroke:#181818;stroke-width:0.5;" width="15" x="1931" y="248.2969"/><rect fill="#F1F1F1" height="2" style="stroke:#181818;stroke-width:0.5;" width="4" x="1929" y="250.2969"/><rect fill="#F1F1F1" height="2" style="stroke:#181818;stroke-width:0.5;" width="4" x="1929" y="254.2969"/><text fill="#000000" font-family="sans-serif" font-size="14" lengthAdjust="spacing" textLength="40" x="1886" y="276.292">acpi.c</text></g><!--entity acpi.h--><g id="elem_acpi.h"><rect fill="#F1F1F1" height="46.2969" rx="2.5" ry="2.5" style="stroke:#181818;stroke-width:0.5;" width="81" x="1986.5" y="243.2969"/><rect fill="#F1F1F1" height="10" style="stroke:#181818;stroke-width:0.5;" width="15" x="2047.5" y="248.2969"/><rect fill="#F1F1F1" height="2" style="stroke:#181818;stroke-width:0.5;" width="4" x="2045.5" y="250.2969"/><rect fill="#F1F1F1" height="2" style="stroke:#181818;stroke-width:0.5;" width="4" x="2045.5" y="254.2969"/><text fill="#000000" font-family="sans-serif" font-size="14" lengthAdjust="spacing" textLength="41" x="2001.5" y="276.292">acpi.h</text></g><!--entity vesa.c--><g id="elem_vesa.c"><rect fill="#F1F1F1" height="46.2969" rx="2.5" ry="2.5" style="stroke:#181818;stroke-width:0.5;" width="84" x="1731" y="137.2969"/><rect fill="#F1F1F1" height="10" style="stroke:#181818;stroke-width:0.5;" width="15" x="1795" y="142.2969"/><rect fill="#F1F1F1" height="2" style="stroke:#181818;stroke-width:0.5;" width="4" x="1793" y="144.2969"/><rect fill="#F1F1F1" height="2" style="stroke:#181818;stroke-width:0.5;" width="4" x="1793" y="148.2969"/><text fill="#000000" font-family="sans-serif" font-size="14" lengthAdjust="spacing" textLength="44" x="1746" y="170.292">vesa.c</text></g><!--entity vesa.h--><g id="elem_vesa.h"><rect fill="#F1F1F1" height="46.2969" rx="2.5" ry="2.5" style="stroke:#181818;stroke-width:0.5;" width="85" x="1610.5" y="137.2969"/><rect fill="#F1F1F1" height="10" style="stroke:#181818;stroke-width:0.5;" width="15" x="1675.5" y="142.2969"/><rect fill="#F1F1F1" height="2" style="stroke:#181818;stroke-width:0.5;" width="4" x="1673.5" y="144.2969"/><rect fill="#F1F1F1" height="2" style="stroke:#181818;stroke-width:0.5;" width="4" x="1673.5" y="148.2969"/><text fill="#000000" font-family="sans-serif" font-size="14" lengthAdjust="spacing" textLength="45" x="1625.5" y="170.292">vesa.h</text></g><!--entity ata.c--><g id="elem_ata.c"><rect fill="#F1F1F1" height="46.2969" rx="2.5" ry="2.5" style="stroke:#181818;stroke-width:0.5;" width="73" x="1480.5" y="137.2969"/><rect fill="#F1F1F1" height="10" style="stroke:#181818;stroke-width:0.5;" width="15" x="1533.5" y="142.2969"/><rect fill="#F1F1F1" height="2" style="stroke:#181818;stroke-width:0.5;" width="4" x="1531.5" y="144.2969"/><rect fill="#F1F1F1" height="2" style="stroke:#181818;stroke-width:0.5;" width="4" x="1531.5" y="148.2969"/><text fill="#000000" font-family="sans-serif" font-size="14" lengthAdjust="spacing" textLength="33" x="1495.5" y="170.292">ata.c</text></g><!--entity ata.h--><g id="elem_ata.h"><rect fill="#F1F1F1" height="46.2969" rx="2.5" ry="2.5" style="stroke:#181818;stroke-width:0.5;" width="74" x="1371" y="137.2969"/><rect fill="#F1F1F1" height="10" style="stroke:#181818;stroke-width:0.5;" width="15" x="1425" y="142.2969"/><rect fill="#F1F1F1" height="2" style="stroke:#181818;stroke-width:0.5;" width="4" x="1423" y="144.2969"/><rect fill="#F1F1F1" height="2" style="stroke:#181818;stroke-width:0.5;" width="4" x="1423" y="148.2969"/><text fill="#000000" font-family="sans-serif" font-size="14" lengthAdjust="spacing" textLength="34" x="1386" y="170.292">ata.h</text></g><!--entity fs.c--><g id="elem_fs.c"><rect fill="#F1F1F1" height="46.2969" rx="2.5" ry="2.5" style="stroke:#181818;stroke-width:0.5;" width="64" x="2697" y="137.2969"/><rect fill="#F1F1F1" height="10" style="stroke:#181818;stroke-width:0.5;" width="15" x="2741" y="142.2969"/><rect fill="#F1F1F1" height="2" style="stroke:#181818;stroke-width:0.5;" width="4" x="2739" y="144.2969"/><rect fill="#F1F1F1" height="2" style="stroke:#181818;stroke-width:0.5;" width="4" x="2739" y="148.2969"/><text fill="#000000" font-family="sans-serif" font-size="14" lengthAdjust="spacing" textLength="24" x="2712" y="170.292">fs.c</text></g><!--entity fs.h--><g id="elem_fs.h"><rect fill="#F1F1F1" height="46.2969" rx="2.5" ry="2.5" style="stroke:#181818;stroke-width:0.5;" width="65" x="2695.5" y="243.2969"/><rect fill="#F1F1F1" height="10" style="stroke:#181818;stroke-width:0.5;" width="15" x="2740.5" y="248.2969"/><rect fill="#F1F1F1" height="2" style="stroke:#181818;stroke-width:0.5;" width="4" x="2738.5" y="250.2969"/><rect fill="#F1F1F1" height="2" style="stroke:#181818;stroke-width:0.5;" width="4" x="2738.5" y="254.2969"/><text fill="#000000" font-family="sans-serif" font-size="14" lengthAdjust="spacing" textLength="25" x="2710.5" y="276.292">fs.h</text></g><!--entity vfs.h--><g id="elem_vfs.h"><rect fill="#F1F1F1" height="46.2969" rx="2.5" ry="2.5" style="stroke:#181818;stroke-width:0.5;" width="72" x="2590" y="137.2969"/><rect fill="#F1F1F1" height="10" style="stroke:#181818;stroke-width:0.5;" width="15" x="2642" y="142.2969"/><rect fill="#F1F1F1" height="2" style="stroke:#181818;stroke-width:0.5;" width="4" x="2640" y="144.2969"/><rect fill="#F1F1F1" height="2" style="stroke:#181818;stroke-width:0.5;" width="4" x="2640" y="148.2969"/><text fill="#000000" font-family="sans-serif" font-size="14" lengthAdjust="spacing" textLength="32" x="2605" y="170.292">vfs.h</text></g><!--link boot.s to gdt.c--><g id="link_boot.s_gdt.c"><path d="M1108,183.2969 C1108,183.2969 1108,237.9769 1108,237.9769 " fill="none" id="boot.s-to-gdt.c" style="stroke:#181818;stroke-width:1.0;"/><polygon fill="#181818" points="1108,242.9769,1112,233.9769,1108,237.9769,1104,233.9769,1108,242.9769" style="stroke:#181818;stroke-width:1.0;"/></g><!--link gdt.c to idt.c--><g id="link_gdt.c_idt.c"><path d="M1108,289.3669 C1108,289.3669 1108,399.2769 1108,399.2769 " fill="none" id="gdt.c-to-idt.c" style="stroke:#181818;stroke-width:1.0;"/><polygon fill="#181818" points="1108,404.2769,1112,395.2769,1108,399.2769,1104,395.2769,1108,404.2769" style="stroke:#181818;stroke-width:1.0;"/></g><!--link idt.c to kernel.c--><g id="link_idt.c_kernel.c"><path d="M1108,450.5369 C1108,450.5369 1108,535.9469 1108,535.9469 " fill="none" id="idt.c-to-kernel.c" style="stroke:#181818;stroke-width:1.0;"/><polygon fill="#181818" points="1108,540.9469,1112,531.9469,1108,535.9469,1104,531.9469,1108,540.9469" style="stroke:#181818;stroke-width:1.0;"/></g><!--link console.c to console.h--><g id="link_console.c_console.h"><path d="M732.25,587.2969 C732.25,587.2969 732.25,641.9769 732.25,641.9769 " fill="none" id="console.c-to-console.h" style="stroke:#181818;stroke-width:1.0;"/><polygon fill="#181818" points="732.25,646.9769,736.25,637.9769,732.25,641.9769,728.25,637.9769,732.25,646.9769" style="stroke:#181818;stroke-width:1.0;"/></g><!--link fs.c to fs.h--><g id="link_fs.c_fs.h"><path d="M2728.75,183.2969 C2728.75,183.2969 2728.75,237.9769 2728.75,237.9769 " fill="none" id="fs.c-to-fs.h" style="stroke:#181818;stroke-width:1.0;"/><polygon fill="#181818" points="2728.75,242.9769,2732.75,233.9769,2728.75,237.9769,2724.75,233.9769,2728.75,242.9769" style="stroke:#181818;stroke-width:1.0;"/></g><!--link keyboard.c to keyboard.h--><g id="link_keyboard.c_keyboard.h"><path d="M2451,183.2969 C2451,183.2969 2451,237.9769 2451,237.9769 " fill="none" id="keyboard.c-to-keyboard.h" style="stroke:#181818;stroke-width:1.0;"/><polygon fill="#181818" points="2451,242.9769,2455,233.9769,2451,237.9769,2447,233.9769,2451,242.9769" style="stroke:#181818;stroke-width:1.0;"/></g><!--link log.c to log.h--><g id="link_log.c_log.h"><path d="M857.75,587.2969 C857.75,587.2969 857.75,641.9769 857.75,641.9769 " fill="none" id="log.c-to-log.h" style="stroke:#181818;stroke-width:1.0;"/><polygon fill="#181818" points="857.75,646.9769,861.75,637.9769,857.75,641.9769,853.75,637.9769,857.75,646.9769" style="stroke:#181818;stroke-width:1.0;"/></g><!--link shell.c to shell.h--><g id="link_shell.c_shell.h"><path d="M64.25,450.5369 C64.25,450.5369 64.25,535.9469 64.25,535.9469 " fill="none" id="shell.c-to-shell.h" style="stroke:#181818;stroke-width:1.0;"/><polygon fill="#181818" points="64.25,540.9469,68.25,531.9469,64.25,535.9469,60.25,531.9469,64.25,540.9469" style="stroke:#181818;stroke-width:1.0;"/></g><!--link syscall.c to syscall.h--><g id="link_syscall.c_syscall.h"><path d="M978.25,587.2969 C978.25,587.2969 978.25,641.9769 978.25,641.9769 " fill="none" id="syscall.c-to-syscall.h" style="stroke:#181818;stroke-width:1.0;"/><polygon fill="#181818" points="978.25,646.9769,982.25,637.9769,978.25,641.9769,974.25,637.9769,978.25,646.9769" style="stroke:#181818;stroke-width:1.0;"/></g><!--link sysmon.c to sysmon.h--><g id="link_sysmon.c_sysmon.h"><path d="M590,587.2969 C590,587.2969 590,641.9769 590,641.9769 " fill="none" id="sysmon.c-to-sysmon.h" style="stroke:#181818;stroke-width:1.0;"/><polygon fill="#181818" points="590,646.9769,594,637.9769,590,641.9769,586,637.9769,590,646.9769" style="stroke:#181818;stroke-width:1.0;"/></g><rect fill="#DDDDDD" height="62.8906" id="_legend" rx="7.5" ry="7.5" style="stroke:#000000;stroke-width:1.0;" width="138" x="2620" y="727.2969"/><text fill="#000000" font-family="sans-serif" font-size="14" lengthAdjust="spacing" textLength="36" x="2629" y="747.292">Color</text><text fill="#000000" font-family="sans-serif" font-size="14" lengthAdjust="spacing" textLength="36" x="2713" y="747.292">Layer</text><text fill="#000000" font-family="sans-serif" font-size="14" lengthAdjust="spacing" textLength="64" x="2629" y="763.5889">LightBlue</text><text fill="#000000" font-family="sans-serif" font-size="14" lengthAdjust="spacing" textLength="31" x="2713" y="763.5889">Arch</text><text fill="#000000" font-family="sans-serif" font-size="14" lengthAdjust="spacing" textLength="76" x="2629" y="779.8857">LightGreen</text><text fill="#000000" font-family="sans-serif" font-size="14" lengthAdjust="spacing" textLength="33" x="2713" y="779.8857">Core</text><line style="stroke:#000000;stroke-width:1.0;" x1="2625" x2="2753" y1="734.2969" y2="734.2969"/><line style="stroke:#000000;stroke-width:1.0;" x1="2625" x2="2753" y1="750.5938" y2="750.5938"/><line style="stroke:#000000;stroke-width:1.0;" x1="2625" x2="2753" y1="766.8906" y2="766.8906"/><line style="stroke:#000000;stroke-width:1.0;" x1="2625" x2="2753" y1="783.1875" y2="783.1875"/><line style="stroke:#000000;stroke-width:1.0;" x1="2625" x2="2625" y1="734.2969" y2="783.1875"/><line style="stroke:#000000;stroke-width:1.0;" x1="2709" x2="2709" y1="734.2969" y2="783.1875"/><line style="stroke:#000000;stroke-width:1.0;" x1="2753" x2="2753" y1="734.2969" y2="783.1875"/><!--SRC=[ZLLRQzim57xthn1vs3f6-rZ6w0AvTGka5EAcKCOOYdrYYoYIaPHiOUb_dswMfNPPdOVuVD-vwHn9Huee2cW7l-zpT4SAmRSW6D3FQ2IA6hr34ouWo-IMi0OBl4EKC5371X0NgkQHei755bU0_cH8_yOQLOBlMJdXb8kR6nDkE4GBKjLgJFVmRokJhRNwAW2OC-EY165Dq9Xg7ylcDIxvBy8gjC5KGlQSPU_HbtC_hHij9z_G1Rd-TFtXlvPj9GFR0kSmGA44L-3tDUVgIlvme2hLJontCRug8hdsCdbXHo8x4jbXdSg0DskQt2zdA7_A7sPt_Meo7JR5-4xxOjocXwLusAu6w2QeZ1ogOKI9qa27vL4Mc7PXMXmCAA-2qiYTfn9w8pj71uEwu4no2a7VuZZpZhCuiO5z6hYQeu_eOJNlrxtL_7NlrbYI8gHsgEsGh27kXqMXgoLHN7IDTR3LgZq9AYEt_461s0MDGttgd2xdZxCbMeoUzF-5gQ3d9PWASW0Xaxfjyc0nPyrU3Nmx_FavhZdMHyElCoLzASylmangB98e4WJ1D8dXgJgYX2eI4uFFP1ZlPPAWAKZYQd0S6XTDQc29Cy4VIGay2Ny0YHDtIvnnp_NcQo49W5NgRt1mVtF7R_D-6tnBAEWBes3t-cnlP3XgMWndqCbs1LDeW9N02W8oQuSYkhmSXY7eluxp0yz_7TSDdoowwKuNtNIt64Ux1SJdh0tLdJ4_RPp2Jvjm8HqRBcGqkhoc6rtTS0agFrnq-GkeTFaPjHyapBkLdP1xgaveWO-Wlve9xvvcxRCIIFlCePDzQ3MhmxXWsLy0]--></g></svg>