<?xml version="1.0" encoding="us-ascii" standalone="no"?><svg xmlns="http://www.w3.org/2000/svg" xmlns:xlink="http://www.w3.org/1999/xlink" contentStyleType="text/css" height="500px" preserveAspectRatio="none" style="width:1806px;height:500px;background:#FFFFFF;" version="1.1" viewBox="0 0 1806 500" width="1806px" zoomAndPan="magnify"><defs/><g><text fill="#000000" font-family="sans-serif" font-size="14" font-weight="bold" lengthAdjust="spacing" textLength="262" x="765" y="22.9951">mexOS Microkernel: Arch &amp; Core</text><!--cluster Arch (i686)--><g id="cluster_Arch (i686)"><path d="M8.5,43.2969 L97.5,43.2969 A3.75,3.75 0 0 1 100,45.7969 L107,65.5938 L731.5,65.5938 A2.5,2.5 0 0 1 734,68.0938 L734,282.7969 A2.5,2.5 0 0 1 731.5,285.2969 L8.5,285.2969 A2.5,2.5 0 0 1 6,282.7969 L6,45.7969 A2.5,2.5 0 0 1 8.5,43.2969 " fill="#ADD8E6" style="stroke:#000000;stroke-width:1.5;"/><line style="stroke:#000000;stroke-width:1.5;" x1="6" x2="107" y1="65.5938" y2="65.5938"/><text fill="#000000" font-family="sans-serif" font-size="14" font-weight="bold" lengthAdjust="spacing" textLength="88" x="10" y="58.292">Arch (i686)</text><text fill="#000000" font-family="sans-serif" font-size="14" font-style="italic" lengthAdjust="spacing" textLength="50" x="349" y="80.5889">&#171;Arch&#187;</text></g><!--cluster Core--><g id="cluster_Core"><path d="M768.5,164.2969 L807.5,164.2969 A3.75,3.75 0 0 1 810,166.7969 L817,186.5938 L1796.5,186.5938 A2.5,2.5 0 0 1 1799,189.0938 L1799,396.7969 A2.5,2.5 0 0 1 1796.5,399.2969 L768.5,399.2969 A2.5,2.5 0 0 1 766,396.7969 L766,166.7969 A2.5,2.5 0 0 1 768.5,164.2969 " fill="#90EE90" style="stroke:#000000;stroke-width:1.5;"/><line style="stroke:#000000;stroke-width:1.5;" x1="766" x2="817" y1="186.5938" y2="186.5938"/><text fill="#000000" font-family="sans-serif" font-size="14" font-weight="bold" lengthAdjust="spacing" textLength="38" x="770" y="179.292">Core</text><text fill="#000000" font-family="sans-serif" font-size="14" font-style="italic" lengthAdjust="spacing" textLength="51" x="1261" y="201.5889">&#171;Core&#187;</text></g><!--entity boot.s--><g id="elem_boot.s"><rect fill="#F1F1F1" height="46.2969" rx="2.5" ry="2.5" style="stroke:#181818;stroke-width:0.5;" width="84" x="382" y="94.2969"/><rect fill="#F1F1F1" height="10" style="stroke:#181818;stroke-width:0.5;" width="15" x="446" y="99.2969"/><rect fill="#F1F1F1" height="2" style="stroke:#181818;stroke-width:0.5;" width="4" x="444" y="101.2969"/><rect fill="#F1F1F1" height="2" style="stroke:#181818;stroke-width:0.5;" width="4" x="444" y="105.2969"/><text fill="#000000" font-family="sans-serif" font-size="14" lengthAdjust="spacing" textLength="44" x="397" y="127.292">boot.s</text></g><!--entity gdt_asm.s--><g id="elem_gdt_asm.s"><rect fill="#F1F1F1" height="46.2969" rx="2.5" ry="2.5" style="stroke:#181818;stroke-width:0.5;" width="111" x="21.5" y="94.2969"/><rect fill="#F1F1F1" height="10" style="stroke:#181818;stroke-width:0.5;" width="15" x="112.5" y="99.2969"/><rect fill="#F1F1F1" height="2" style="stroke:#181818;stroke-width:0.5;" width="4" x="110.5" y="101.2969"/><rect fill="#F1F1F1" height="2" style="stroke:#181818;stroke-width:0.5;" width="4" x="110.5" y="105.2969"/><text fill="#000000" font-family="sans-serif" font-size="14" lengthAdjust="spacing" textLength="71" x="36.5" y="127.292">gdt_asm.s</text></g><!--entity gdt.c--><g id="elem_gdt.c"><rect fill="#F1F1F1" height="46.2969" rx="2.5" ry="2.5" style="stroke:#181818;stroke-width:0.5;" width="75" x="271.5" y="94.2969"/><rect fill="#F1F1F1" height="10" style="stroke:#181818;stroke-width:0.5;" width="15" x="326.5" y="99.2969"/><rect fill="#F1F1F1" height="2" style="stroke:#181818;stroke-width:0.5;" width="4" x="324.5" y="101.2969"/><rect fill="#F1F1F1" height="2" style="stroke:#181818;stroke-width:0.5;" width="4" x="324.5" y="105.2969"/><text fill="#000000" font-family="sans-serif" font-size="14" lengthAdjust="spacing" textLength="35" x="286.5" y="127.292">gdt.c</text></g><!--entity gdt.h--><g id="elem_gdt.h"><rect fill="#F1F1F1" height="46.2969" rx="2.5" ry="2.5" style="stroke:#181818;stroke-width:0.5;" width="76" x="501" y="94.2969"/><rect fill="#F1F1F1" height="10" style="stroke:#181818;stroke-width:0.5;" width="15" x="557" y="99.2969"/><rect fill="#F1F1F1" height="2" style="stroke:#181818;stroke-width:0.5;" width="4" x="555" y="101.2969"/><rect fill="#F1F1F1" height="2" style="stroke:#181818;stroke-width:0.5;" width="4" x="555" y="105.2969"/><text fill="#000000" font-family="sans-serif" font-size="14" lengthAdjust="spacing" textLength="36" x="516" y="127.292">gdt.h</text></g><!--entity idt_asm.s--><g id="elem_idt_asm.s"><rect fill="#F1F1F1" height="46.2969" rx="2.5" ry="2.5" style="stroke:#181818;stroke-width:0.5;" width="105" x="612.5" y="94.2969"/><rect fill="#F1F1F1" height="10" style="stroke:#181818;stroke-width:0.5;" width="15" x="697.5" y="99.2969"/><rect fill="#F1F1F1" height="2" style="stroke:#181818;stroke-width:0.5;" width="4" x="695.5" y="101.2969"/><rect fill="#F1F1F1" height="2" style="stroke:#181818;stroke-width:0.5;" width="4" x="695.5" y="105.2969"/><text fill="#000000" font-family="sans-serif" font-size="14" lengthAdjust="spacing" textLength="65" x="627.5" y="127.292">idt_asm.s</text></g><!--entity idt.c--><g id="elem_idt.c"><rect fill="#F1F1F1" height="46.2969" rx="2.5" ry="2.5" style="stroke:#181818;stroke-width:0.5;" width="69" x="167.5" y="94.2969"/><rect fill="#F1F1F1" height="10" style="stroke:#181818;stroke-width:0.5;" width="15" x="216.5" y="99.2969"/><rect fill="#F1F1F1" height="2" style="stroke:#181818;stroke-width:0.5;" width="4" x="214.5" y="101.2969"/><rect fill="#F1F1F1" height="2" style="stroke:#181818;stroke-width:0.5;" width="4" x="214.5" y="105.2969"/><text fill="#000000" font-family="sans-serif" font-size="14" lengthAdjust="spacing" textLength="29" x="182.5" y="127.292">idt.c</text></g><!--entity idt.h--><g id="elem_idt.h"><rect fill="#F1F1F1" height="46.2969" rx="2.5" ry="2.5" style="stroke:#181818;stroke-width:0.5;" width="70" x="42" y="223.2969"/><rect fill="#F1F1F1" height="10" style="stroke:#181818;stroke-width:0.5;" width="15" x="92" y="228.2969"/><rect fill="#F1F1F1" height="2" style="stroke:#181818;stroke-width:0.5;" width="4" x="90" y="230.2969"/><rect fill="#F1F1F1" height="2" style="stroke:#181818;stroke-width:0.5;" width="4" x="90" y="234.2969"/><text fill="#000000" font-family="sans-serif" font-size="14" lengthAdjust="spacing" textLength="30" x="57" y="256.292">idt.h</text></g><!--entity arch.h--><g id="elem_arch.h"><rect fill="#F1F1F1" height="46.2969" rx="2.5" ry="2.5" style="stroke:#181818;stroke-width:0.5;" width="83" x="147.5" y="223.2969"/><rect fill="#F1F1F1" height="10" style="stroke:#181818;stroke-width:0.5;" width="15" x="210.5" y="228.2969"/><rect fill="#F1F1F1" height="2" style="stroke:#181818;stroke-width:0.5;" width="4" x="208.5" y="230.2969"/><rect fill="#F1F1F1" height="2" style="stroke:#181818;stroke-width:0.5;" width="4" x="208.5" y="234.2969"/><text fill="#000000" font-family="sans-serif" font-size="14" lengthAdjust="spacing" textLength="43" x="162.5" y="256.292">arch.h</text></g><!--entity console.c--><g id="elem_console.c"><rect fill="#F1F1F1" height="46.2969" rx="2.5" ry="2.5" style="stroke:#181818;stroke-width:0.5;" width="107" x="1668.5" y="223.2969"/><rect fill="#F1F1F1" height="10" style="stroke:#181818;stroke-width:0.5;" width="15" x="1755.5" y="228.2969"/><rect fill="#F1F1F1" height="2" style="stroke:#181818;stroke-width:0.5;" width="4" x="1753.5" y="230.2969"/><rect fill="#F1F1F1" height="2" style="stroke:#181818;stroke-width:0.5;" width="4" x="1753.5" y="234.2969"/><text fill="#000000" font-family="sans-serif" font-size="14" lengthAdjust="spacing" textLength="67" x="1683.5" y="256.292">console.c</text></g><!--entity console.h--><g id="elem_console.h"><rect fill="#F1F1F1" height="46.2969" rx="2.5" ry="2.5" style="stroke:#181818;stroke-width:0.5;" width="108" x="1667" y="329.2969"/><rect fill="#F1F1F1" height="10" style="stroke:#181818;stroke-width:0.5;" width="15" x="1755" y="334.2969"/><rect fill="#F1F1F1" height="2" style="stroke:#181818;stroke-width:0.5;" width="4" x="1753" y="336.2969"/><rect fill="#F1F1F1" height="2" style="stroke:#181818;stroke-width:0.5;" width="4" x="1753" y="340.2969"/><text fill="#000000" font-family="sans-serif" font-size="14" lengthAdjust="spacing" textLength="68" x="1682" y="362.292">console.h</text></g><!--entity fs.c--><g id="elem_fs.c"><rect fill="#F1F1F1" height="46.2969" rx="2.5" ry="2.5" style="stroke:#181818;stroke-width:0.5;" width="64" x="1569" y="223.2969"/><rect fill="#F1F1F1" height="10" style="stroke:#181818;stroke-width:0.5;" width="15" x="1613" y="228.2969"/><rect fill="#F1F1F1" height="2" style="stroke:#181818;stroke-width:0.5;" width="4" x="1611" y="230.2969"/><rect fill="#F1F1F1" height="2" style="stroke:#181818;stroke-width:0.5;" width="4" x="1611" y="234.2969"/><text fill="#000000" font-family="sans-serif" font-size="14" lengthAdjust="spacing" textLength="24" x="1584" y="256.292">fs.c</text></g><!--entity fs.h--><g id="elem_fs.h"><rect fill="#F1F1F1" height="46.2969" rx="2.5" ry="2.5" style="stroke:#181818;stroke-width:0.5;" width="65" x="1566.5" y="329.2969"/><rect fill="#F1F1F1" height="10" style="stroke:#181818;stroke-width:0.5;" width="15" x="1611.5" y="334.2969"/><rect fill="#F1F1F1" height="2" style="stroke:#181818;stroke-width:0.5;" width="4" x="1609.5" y="336.2969"/><rect fill="#F1F1F1" height="2" style="stroke:#181818;stroke-width:0.5;" width="4" x="1609.5" y="340.2969"/><text fill="#000000" font-family="sans-serif" font-size="14" lengthAdjust="spacing" textLength="25" x="1581.5" y="362.292">fs.h</text></g><!--entity keyboard.c--><g id="elem_keyboard.c"><rect fill="#F1F1F1" height="46.2969" rx="2.5" ry="2.5" style="stroke:#181818;stroke-width:0.5;" width="116" x="1418" y="223.2969"/><rect fill="#F1F1F1" height="10" style="stroke:#181818;stroke-width:0.5;" width="15" x="1514" y="228.2969"/><rect fill="#F1F1F1" height="2" style="stroke:#181818;stroke-width:0.5;" width="4" x="1512" y="230.2969"/><rect fill="#F1F1F1" height="2" style="stroke:#181818;stroke-width:0.5;" width="4" x="1512" y="234.2969"/><text fill="#000000" font-family="sans-serif" font-size="14" lengthAdjust="spacing" textLength="76" x="1433" y="256.292">keyboard.c</text></g><!--entity keyboard.h--><g id="elem_keyboard.h"><rect fill="#F1F1F1" height="46.2969" rx="2.5" ry="2.5" style="stroke:#181818;stroke-width:0.5;" width="117" x="1414.5" y="329.2969"/><rect fill="#F1F1F1" height="10" style="stroke:#181818;stroke-width:0.5;" width="15" x="1511.5" y="334.2969"/><rect fill="#F1F1F1" height="2" style="stroke:#181818;stroke-width:0.5;" width="4" x="1509.5" y="336.2969"/><rect fill="#F1F1F1" height="2" style="stroke:#181818;stroke-width:0.5;" width="4" x="1509.5" y="340.2969"/><text fill="#000000" font-family="sans-serif" font-size="14" lengthAdjust="spacing" textLength="77" x="1429.5" y="362.292">keyboard.h</text></g><!--entity log.c--><g id="elem_log.c"><rect fill="#F1F1F1" height="46.2969" rx="2.5" ry="2.5" style="stroke:#181818;stroke-width:0.5;" width="73" x="1309.5" y="223.2969"/><rect fill="#F1F1F1" height="10" style="stroke:#181818;stroke-width:0.5;" width="15" x="1362.5" y="228.2969"/><rect fill="#F1F1F1" height="2" style="stroke:#181818;stroke-width:0.5;" width="4" x="1360.5" y="230.2969"/><rect fill="#F1F1F1" height="2" style="stroke:#181818;stroke-width:0.5;" width="4" x="1360.5" y="234.2969"/><text fill="#000000" font-family="sans-serif" font-size="14" lengthAdjust="spacing" textLength="33" x="1324.5" y="256.292">log.c</text></g><!--entity log.h--><g id="elem_log.h"><rect fill="#F1F1F1" height="46.2969" rx="2.5" ry="2.5" style="stroke:#181818;stroke-width:0.5;" width="74" x="1305" y="329.2969"/><rect fill="#F1F1F1" height="10" style="stroke:#181818;stroke-width:0.5;" width="15" x="1359" y="334.2969"/><rect fill="#F1F1F1" height="2" style="stroke:#181818;stroke-width:0.5;" width="4" x="1357" y="336.2969"/><rect fill="#F1F1F1" height="2" style="stroke:#181818;stroke-width:0.5;" width="4" x="1357" y="340.2969"/><text fill="#000000" font-family="sans-serif" font-size="14" lengthAdjust="spacing" textLength="34" x="1320" y="362.292">log.h</text></g><!--entity shell.c--><g id="elem_shell.c"><rect fill="#F1F1F1" height="46.2969" rx="2.5" ry="2.5" style="stroke:#181818;stroke-width:0.5;" width="84" x="1190" y="223.2969"/><rect fill="#F1F1F1" height="10" style="stroke:#181818;stroke-width:0.5;" width="15" x="1254" y="228.2969"/><rect fill="#F1F1F1" height="2" style="stroke:#181818;stroke-width:0.5;" width="4" x="1252" y="230.2969"/><rect fill="#F1F1F1" height="2" style="stroke:#181818;stroke-width:0.5;" width="4" x="1252" y="234.2969"/><text fill="#000000" font-family="sans-serif" font-size="14" lengthAdjust="spacing" textLength="44" x="1205" y="256.292">shell.c</text></g><!--entity shell.h--><g id="elem_shell.h"><rect fill="#F1F1F1" height="46.2969" rx="2.5" ry="2.5" style="stroke:#181818;stroke-width:0.5;" width="85" x="1184.5" y="329.2969"/><rect fill="#F1F1F1" height="10" style="stroke:#181818;stroke-width:0.5;" width="15" x="1249.5" y="334.2969"/><rect fill="#F1F1F1" height="2" style="stroke:#181818;stroke-width:0.5;" width="4" x="1247.5" y="336.2969"/><rect fill="#F1F1F1" height="2" style="stroke:#181818;stroke-width:0.5;" width="4" x="1247.5" y="340.2969"/><text fill="#000000" font-family="sans-serif" font-size="14" lengthAdjust="spacing" textLength="45" x="1199.5" y="362.292">shell.h</text></g><!--entity string.c--><g id="elem_string.c"><rect fill="#F1F1F1" height="46.2969" rx="2.5" ry="2.5" style="stroke:#181818;stroke-width:0.5;" width="91" x="1063.5" y="223.2969"/><rect fill="#F1F1F1" height="10" style="stroke:#181818;stroke-width:0.5;" width="15" x="1134.5" y="228.2969"/><rect fill="#F1F1F1" height="2" style="stroke:#181818;stroke-width:0.5;" width="4" x="1132.5" y="230.2969"/><rect fill="#F1F1F1" height="2" style="stroke:#181818;stroke-width:0.5;" width="4" x="1132.5" y="234.2969"/><text fill="#000000" font-family="sans-serif" font-size="14" lengthAdjust="spacing" textLength="51" x="1078.5" y="256.292">string.c</text></g><!--entity syscall.c--><g id="elem_syscall.c"><rect fill="#F1F1F1" height="46.2969" rx="2.5" ry="2.5" style="stroke:#181818;stroke-width:0.5;" width="97" x="931.5" y="223.2969"/><rect fill="#F1F1F1" height="10" style="stroke:#181818;stroke-width:0.5;" width="15" x="1008.5" y="228.2969"/><rect fill="#F1F1F1" height="2" style="stroke:#181818;stroke-width:0.5;" width="4" x="1006.5" y="230.2969"/><rect fill="#F1F1F1" height="2" style="stroke:#181818;stroke-width:0.5;" width="4" x="1006.5" y="234.2969"/><text fill="#000000" font-family="sans-serif" font-size="14" lengthAdjust="spacing" textLength="57" x="946.5" y="256.292">syscall.c</text></g><!--entity syscall.h--><g id="elem_syscall.h"><rect fill="#F1F1F1" height="46.2969" rx="2.5" ry="2.5" style="stroke:#181818;stroke-width:0.5;" width="98" x="932" y="329.2969"/><rect fill="#F1F1F1" height="10" style="stroke:#181818;stroke-width:0.5;" width="15" x="1010" y="334.2969"/><rect fill="#F1F1F1" height="2" style="stroke:#181818;stroke-width:0.5;" width="4" x="1008" y="336.2969"/><rect fill="#F1F1F1" height="2" style="stroke:#181818;stroke-width:0.5;" width="4" x="1008" y="340.2969"/><text fill="#000000" font-family="sans-serif" font-size="14" lengthAdjust="spacing" textLength="58" x="947" y="362.292">syscall.h</text></g><!--entity timer.c--><g id="elem_timer.c"><rect fill="#F1F1F1" height="46.2969" rx="2.5" ry="2.5" style="stroke:#181818;stroke-width:0.5;" width="87" x="809.5" y="223.2969"/><rect fill="#F1F1F1" height="10" style="stroke:#181818;stroke-width:0.5;" width="15" x="876.5" y="228.2969"/><rect fill="#F1F1F1" height="2" style="stroke:#181818;stroke-width:0.5;" width="4" x="874.5" y="230.2969"/><rect fill="#F1F1F1" height="2" style="stroke:#181818;stroke-width:0.5;" width="4" x="874.5" y="234.2969"/><text fill="#000000" font-family="sans-serif" font-size="14" lengthAdjust="spacing" textLength="47" x="824.5" y="256.292">timer.c</text></g><!--entity timer.h--><g id="elem_timer.h"><rect fill="#F1F1F1" height="46.2969" rx="2.5" ry="2.5" style="stroke:#181818;stroke-width:0.5;" width="88" x="809" y="329.2969"/><rect fill="#F1F1F1" height="10" style="stroke:#181818;stroke-width:0.5;" width="15" x="877" y="334.2969"/><rect fill="#F1F1F1" height="2" style="stroke:#181818;stroke-width:0.5;" width="4" x="875" y="336.2969"/><rect fill="#F1F1F1" height="2" style="stroke:#181818;stroke-width:0.5;" width="4" x="875" y="340.2969"/><text fill="#000000" font-family="sans-serif" font-size="14" lengthAdjust="spacing" textLength="48" x="824" y="362.292">timer.h</text></g><!--link boot.s to Core--><g id="link_boot.s_Core"><path d="M424,140.3569 C424,177.4669 424,246.2969 424,246.2969 C424,246.2969 507.4475,246.2969 592.85,246.2969 C635.5513,246.2969 678.7412,246.2969 712.2334,246.2969 C728.9795,246.2969 743.3012,246.2969 753.925,246.2969 C756.581,246.2969 759.0059,246.2969 761.1797,246.2969 C762.2666,246.2969 763.2908,246.2969 764.2497,246.2969 C764.7292,246.2969 765.1924,246.2969 765.6389,246.2969 " fill="none" id="boot.s-to-Core" style="stroke:#181818;stroke-width:1.0;"/><polygon fill="#181818" points="765.6389,246.2969,756.6389,242.2969,760.6389,246.2969,756.6389,250.2969,765.6389,246.2969" style="stroke:#181818;stroke-width:1.0;"/></g><!--link gdt.c to Core--><g id="link_gdt.c_Core"><path d="M309,140.3969 C309,159.0769 309,182.2969 309,182.2969 C309,182.2969 425.25,182.2969 541.5,182.2969 C599.625,182.2969 657.75,182.2969 701.3438,182.2969 C723.1406,182.2969 741.3047,182.2969 754.0195,182.2969 C757.1982,182.2969 760.0364,182.2969 762.5056,182.2969 C763.7401,182.2969 764.8825,182.2969 765.9291,182.2969 " fill="none" id="gdt.c-to-Core" style="stroke:#181818;stroke-width:1.0;"/><polygon fill="#181818" points="765.9291,182.2969,756.9291,178.2969,760.9291,182.2969,756.9291,186.2969,765.9291,182.2969" style="stroke:#181818;stroke-width:1.0;"/></g><!--link idt.c to Core--><g id="link_idt.c_Core"><path d="M236.68,117.2969 C246.22,117.2969 254,117.2969 254,117.2969 C254,117.2969 254,258.2969 254,258.2969 C254,258.2969 384,258.2969 514,258.2969 C579,258.2969 644,258.2969 692.75,258.2969 C717.125,258.2969 737.4375,258.2969 751.6563,258.2969 C755.2109,258.2969 758.3848,258.2969 761.146,258.2969 C762.5266,258.2969 763.8041,258.2969 764.9744,258.2969 C765.267,258.2969 765.5529,258.2969 765.832,258.2969 " fill="none" id="idt.c-to-Core" style="stroke:#181818;stroke-width:1.0;"/><polygon fill="#181818" points="765.832,258.2969,756.832,254.2969,760.832,258.2969,756.832,262.2969,765.832,258.2969" style="stroke:#181818;stroke-width:1.0;"/></g><!--link console.c to console.h--><g id="link_console.c_console.h"><path d="M1721.75,269.2969 C1721.75,269.2969 1721.75,323.9769 1721.75,323.9769 " fill="none" id="console.c-to-console.h" style="stroke:#181818;stroke-width:1.0;"/><polygon fill="#181818" points="1721.75,328.9769,1725.75,319.9769,1721.75,323.9769,1717.75,319.9769,1721.75,328.9769" style="stroke:#181818;stroke-width:1.0;"/></g><!--link fs.c to fs.h--><g id="link_fs.c_fs.h"><path d="M1600.25,269.2969 C1600.25,269.2969 1600.25,323.9769 1600.25,323.9769 " fill="none" id="fs.c-to-fs.h" style="stroke:#181818;stroke-width:1.0;"/><polygon fill="#181818" points="1600.25,328.9769,1604.25,319.9769,1600.25,323.9769,1596.25,319.9769,1600.25,328.9769" style="stroke:#181818;stroke-width:1.0;"/></g><!--link keyboard.c to keyboard.h--><g id="link_keyboard.c_keyboard.h"><path d="M1474.75,269.2969 C1474.75,269.2969 1474.75,323.9769 1474.75,323.9769 " fill="none" id="keyboard.c-to-keyboard.h" style="stroke:#181818;stroke-width:1.0;"/><polygon fill="#181818" points="1474.75,328.9769,1478.75,319.9769,1474.75,323.9769,1470.75,319.9769,1474.75,328.9769" style="stroke:#181818;stroke-width:1.0;"/></g><!--link log.c to log.h--><g id="link_log.c_log.h"><path d="M1344.25,269.2969 C1344.25,269.2969 1344.25,323.9769 1344.25,323.9769 " fill="none" id="log.c-to-log.h" style="stroke:#181818;stroke-width:1.0;"/><polygon fill="#181818" points="1344.25,328.9769,1348.25,319.9769,1344.25,323.9769,1340.25,319.9769,1344.25,328.9769" style="stroke:#181818;stroke-width:1.0;"/></g><!--link shell.c to shell.h--><g id="link_shell.c_shell.h"><path d="M1229.75,269.2969 C1229.75,269.2969 1229.75,323.9769 1229.75,323.9769 " fill="none" id="shell.c-to-shell.h" style="stroke:#181818;stroke-width:1.0;"/><polygon fill="#181818" points="1229.75,328.9769,1233.75,319.9769,1229.75,323.9769,1225.75,319.9769,1229.75,328.9769" style="stroke:#181818;stroke-width:1.0;"/></g><!--link syscall.c to syscall.h--><g id="link_syscall.c_syscall.h"><path d="M980.25,269.2969 C980.25,269.2969 980.25,323.9769 980.25,323.9769 " fill="none" id="syscall.c-to-syscall.h" style="stroke:#181818;stroke-width:1.0;"/><polygon fill="#181818" points="980.25,328.9769,984.25,319.9769,980.25,323.9769,976.25,319.9769,980.25,328.9769" style="stroke:#181818;stroke-width:1.0;"/></g><!--link timer.c to timer.h--><g id="link_timer.c_timer.h"><path d="M853,269.2969 C853,269.2969 853,323.9769 853,323.9769 " fill="none" id="timer.c-to-timer.h" style="stroke:#181818;stroke-width:1.0;"/><polygon fill="#181818" points="853,328.9769,857,319.9769,853,323.9769,849,319.9769,853,328.9769" style="stroke:#181818;stroke-width:1.0;"/></g><rect fill="#DDDDDD" height="62.8906" id="_legend" rx="7.5" ry="7.5" style="stroke:#000000;stroke-width:1.0;" width="138" x="1642" y="417.2969"/><text fill="#000000" font-family="sans-serif" font-size="14" lengthAdjust="spacing" textLength="36" x="1651" y="437.292">Color</text><text fill="#000000" font-family="sans-serif" font-size="14" lengthAdjust="spacing" textLength="36" x="1735" y="437.292">Layer</text><text fill="#000000" font-family="sans-serif" font-size="14" lengthAdjust="spacing" textLength="64" x="1651" y="453.5889">LightBlue</text><text fill="#000000" font-family="sans-serif" font-size="14" lengthAdjust="spacing" textLength="31" x="1735" y="453.5889">Arch</text><text fill="#000000" font-family="sans-serif" font-size="14" lengthAdjust="spacing" textLength="76" x="1651" y="469.8857">LightGreen</text><text fill="#000000" font-family="sans-serif" font-size="14" lengthAdjust="spacing" textLength="33" x="1735" y="469.8857">Core</text><line style="stroke:#000000;stroke-width:1.0;" x1="1647" x2="1775" y1="424.2969" y2="424.2969"/><line style="stroke:#000000;stroke-width:1.0;" x1="1647" x2="1775" y1="440.5938" y2="440.5938"/><line style="stroke:#000000;stroke-width:1.0;" x1="1647" x2="1775" y1="456.8906" y2="456.8906"/><line style="stroke:#000000;stroke-width:1.0;" x1="1647" x2="1775" y1="473.1875" y2="473.1875"/><line style="stroke:#000000;stroke-width:1.0;" x1="1647" x2="1647" y1="424.2969" y2="473.1875"/><line style="stroke:#000000;stroke-width:1.0;" x1="1731" x2="1731" y1="424.2969" y2="473.1875"/><line style="stroke:#000000;stroke-width:1.0;" x1="1775" x2="1775" y1="424.2969" y2="473.1875"/><!--SRC=[bPDDJm8n48Rl_HKJ3W87E19Z28bWua6C1uw4cB8xx3RRRJTjYMx4_su_jgNgHRbivts7-NZI6cOuGellBpjuPeMI3Ig1_0xkLL733MoaGa9qmqH75Ms1Cu6cxn2aChNCZ8uM3QqGFWZOtzf6bP9dKMuabsgvTELMAzYogZPhViQG9LM9ocV0cjk_U7LNqrA-CL71YNADvFFlNToqiSkZGXJ_QaF6yEItZsqqYVr67iU4BMuNqn6aTS8O-wEKPguF8QXAyqfrcyVp8ZlNmvdzo6DP7ilog6tb0ZjVciRjwSOOzXt6AAJGacEg4kDOwQIJPOzHRR0_IghAv2KXPd1P9TETewvhv3mv8KgUKHRjrUnrGVFa8OxfXhMeaXkYiFCO7h13KQ8e66gOsAK45eRPtQOaaeVPR0LxH-D01k3V9FPRki8ASWOhW0fo09L32deEQG0KZ05GWXFK12SZCJXN4eb2S185os2BbML0kF-0SlURN21SwGjiQO_sQvNqlgpghsmI_NE0Yt_GLhLbGh4l]--></g></svg>