<?xml version="1.0" encoding="us-ascii" standalone="no"?><svg xmlns="http://www.w3.org/2000/svg" xmlns:xlink="http://www.w3.org/1999/xlink" contentStyleType="text/css" height="379px" preserveAspectRatio="none" style="width:1272px;height:379px;background:#FFFFFF;" version="1.1" viewBox="0 0 1272 379" width="1272px" zoomAndPan="magnify"><defs/><g><text fill="#000000" font-family="sans-serif" font-size="14" font-weight="bold" lengthAdjust="spacing" textLength="352" x="453" y="22.9951">mexOS Microkernel: Memory, Scheduler, IPC</text><!--cluster Memory Management--><g id="cluster_Memory Management"><path d="M8.5,43.2969 L178.5,43.2969 A3.75,3.75 0 0 1 181,45.7969 L188,65.5938 L611.5,65.5938 A2.5,2.5 0 0 1 614,68.0938 L614,259.7969 A2.5,2.5 0 0 1 611.5,262.2969 L8.5,262.2969 A2.5,2.5 0 0 1 6,259.7969 L6,45.7969 A2.5,2.5 0 0 1 8.5,43.2969 " fill="#FFFFE0" style="stroke:#000000;stroke-width:1.5;"/><line style="stroke:#000000;stroke-width:1.5;" x1="6" x2="188" y1="65.5938" y2="65.5938"/><text fill="#000000" font-family="sans-serif" font-size="14" font-weight="bold" lengthAdjust="spacing" textLength="169" x="10" y="58.292">Memory Management</text><text fill="#000000" font-family="sans-serif" font-size="14" font-style="italic" lengthAdjust="spacing" textLength="42" x="293" y="80.5889">&#171;MM&#187;</text></g><!--cluster Scheduler--><g id="cluster_Scheduler"><path d="M640.5,43.2969 L721.5,43.2969 A3.75,3.75 0 0 1 724,45.7969 L731,65.5938 L1025.5,65.5938 A2.5,2.5 0 0 1 1028,68.0938 L1028,153.7969 A2.5,2.5 0 0 1 1025.5,156.2969 L640.5,156.2969 A2.5,2.5 0 0 1 638,153.7969 L638,45.7969 A2.5,2.5 0 0 1 640.5,43.2969 " fill="#F08080" style="stroke:#000000;stroke-width:1.5;"/><line style="stroke:#000000;stroke-width:1.5;" x1="638" x2="731" y1="65.5938" y2="65.5938"/><text fill="#000000" font-family="sans-serif" font-size="14" font-weight="bold" lengthAdjust="spacing" textLength="80" x="642" y="58.292">Scheduler</text><text fill="#000000" font-family="sans-serif" font-size="14" font-style="italic" lengthAdjust="spacing" textLength="88" x="793" y="80.5889">&#171;Scheduler&#187;</text></g><!--cluster IPC--><g id="cluster_IPC"><path d="M1054.5,43.2969 L1080.5,43.2969 A3.75,3.75 0 0 1 1083,45.7969 L1090,65.5938 L1262.5,65.5938 A2.5,2.5 0 0 1 1265,68.0938 L1265,153.7969 A2.5,2.5 0 0 1 1262.5,156.2969 L1054.5,156.2969 A2.5,2.5 0 0 1 1052,153.7969 L1052,45.7969 A2.5,2.5 0 0 1 1054.5,43.2969 " fill="#FFB6C1" style="stroke:#000000;stroke-width:1.5;"/><line style="stroke:#000000;stroke-width:1.5;" x1="1052" x2="1090" y1="65.5938" y2="65.5938"/><text fill="#000000" font-family="sans-serif" font-size="14" font-weight="bold" lengthAdjust="spacing" textLength="25" x="1056" y="58.292">IPC</text><text fill="#000000" font-family="sans-serif" font-size="14" font-style="italic" lengthAdjust="spacing" textLength="40" x="1142.5" y="80.5889">&#171;IPC&#187;</text></g><!--entity heap.c--><g id="elem_heap.c"><rect fill="#F1F1F1" height="46.2969" rx="2.5" ry="2.5" style="stroke:#181818;stroke-width:0.5;" width="87" x="387.5" y="94.2969"/><rect fill="#F1F1F1" height="10" style="stroke:#181818;stroke-width:0.5;" width="15" x="454.5" y="99.2969"/><rect fill="#F1F1F1" height="2" style="stroke:#181818;stroke-width:0.5;" width="4" x="452.5" y="101.2969"/><rect fill="#F1F1F1" height="2" style="stroke:#181818;stroke-width:0.5;" width="4" x="452.5" y="105.2969"/><text fill="#000000" font-family="sans-serif" font-size="14" lengthAdjust="spacing" textLength="47" x="402.5" y="127.292">heap.c</text></g><!--entity heap.h--><g id="elem_heap.h"><rect fill="#F1F1F1" height="46.2969" rx="2.5" ry="2.5" style="stroke:#181818;stroke-width:0.5;" width="88" x="22" y="94.2969"/><rect fill="#F1F1F1" height="10" style="stroke:#181818;stroke-width:0.5;" width="15" x="90" y="99.2969"/><rect fill="#F1F1F1" height="2" style="stroke:#181818;stroke-width:0.5;" width="4" x="88" y="101.2969"/><rect fill="#F1F1F1" height="2" style="stroke:#181818;stroke-width:0.5;" width="4" x="88" y="105.2969"/><text fill="#000000" font-family="sans-serif" font-size="14" lengthAdjust="spacing" textLength="48" x="37" y="127.292">heap.h</text></g><!--entity pmm.c--><g id="elem_pmm.c"><rect fill="#F1F1F1" height="46.2969" rx="2.5" ry="2.5" style="stroke:#181818;stroke-width:0.5;" width="87" x="265.5" y="94.2969"/><rect fill="#F1F1F1" height="10" style="stroke:#181818;stroke-width:0.5;" width="15" x="332.5" y="99.2969"/><rect fill="#F1F1F1" height="2" style="stroke:#181818;stroke-width:0.5;" width="4" x="330.5" y="101.2969"/><rect fill="#F1F1F1" height="2" style="stroke:#181818;stroke-width:0.5;" width="4" x="330.5" y="105.2969"/><text fill="#000000" font-family="sans-serif" font-size="14" lengthAdjust="spacing" textLength="47" x="280.5" y="127.292">pmm.c</text></g><!--entity pmm.h--><g id="elem_pmm.h"><rect fill="#F1F1F1" height="46.2969" rx="2.5" ry="2.5" style="stroke:#181818;stroke-width:0.5;" width="88" x="510" y="94.2969"/><rect fill="#F1F1F1" height="10" style="stroke:#181818;stroke-width:0.5;" width="15" x="578" y="99.2969"/><rect fill="#F1F1F1" height="2" style="stroke:#181818;stroke-width:0.5;" width="4" x="576" y="101.2969"/><rect fill="#F1F1F1" height="2" style="stroke:#181818;stroke-width:0.5;" width="4" x="576" y="105.2969"/><text fill="#000000" font-family="sans-serif" font-size="14" lengthAdjust="spacing" textLength="48" x="525" y="127.292">pmm.h</text></g><!--entity vmm.c--><g id="elem_vmm.c"><rect fill="#F1F1F1" height="46.2969" rx="2.5" ry="2.5" style="stroke:#181818;stroke-width:0.5;" width="85" x="145.5" y="94.2969"/><rect fill="#F1F1F1" height="10" style="stroke:#181818;stroke-width:0.5;" width="15" x="210.5" y="99.2969"/><rect fill="#F1F1F1" height="2" style="stroke:#181818;stroke-width:0.5;" width="4" x="208.5" y="101.2969"/><rect fill="#F1F1F1" height="2" style="stroke:#181818;stroke-width:0.5;" width="4" x="208.5" y="105.2969"/><text fill="#000000" font-family="sans-serif" font-size="14" lengthAdjust="spacing" textLength="45" x="160.5" y="127.292">vmm.c</text></g><!--entity vmm.h--><g id="elem_vmm.h"><rect fill="#F1F1F1" height="46.2969" rx="2.5" ry="2.5" style="stroke:#181818;stroke-width:0.5;" width="86" x="23" y="200.2969"/><rect fill="#F1F1F1" height="10" style="stroke:#181818;stroke-width:0.5;" width="15" x="89" y="205.2969"/><rect fill="#F1F1F1" height="2" style="stroke:#181818;stroke-width:0.5;" width="4" x="87" y="207.2969"/><rect fill="#F1F1F1" height="2" style="stroke:#181818;stroke-width:0.5;" width="4" x="87" y="211.2969"/><text fill="#000000" font-family="sans-serif" font-size="14" lengthAdjust="spacing" textLength="46" x="38" y="233.292">vmm.h</text></g><!--entity sched.c--><g id="elem_sched.c"><rect fill="#F1F1F1" height="46.2969" rx="2.5" ry="2.5" style="stroke:#181818;stroke-width:0.5;" width="95" x="916.5" y="94.2969"/><rect fill="#F1F1F1" height="10" style="stroke:#181818;stroke-width:0.5;" width="15" x="991.5" y="99.2969"/><rect fill="#F1F1F1" height="2" style="stroke:#181818;stroke-width:0.5;" width="4" x="989.5" y="101.2969"/><rect fill="#F1F1F1" height="2" style="stroke:#181818;stroke-width:0.5;" width="4" x="989.5" y="105.2969"/><text fill="#000000" font-family="sans-serif" font-size="14" lengthAdjust="spacing" textLength="55" x="931.5" y="127.292">sched.c</text></g><!--entity sched.h--><g id="elem_sched.h"><rect fill="#F1F1F1" height="46.2969" rx="2.5" ry="2.5" style="stroke:#181818;stroke-width:0.5;" width="96" x="785" y="94.2969"/><rect fill="#F1F1F1" height="10" style="stroke:#181818;stroke-width:0.5;" width="15" x="861" y="99.2969"/><rect fill="#F1F1F1" height="2" style="stroke:#181818;stroke-width:0.5;" width="4" x="859" y="101.2969"/><rect fill="#F1F1F1" height="2" style="stroke:#181818;stroke-width:0.5;" width="4" x="859" y="105.2969"/><text fill="#000000" font-family="sans-serif" font-size="14" lengthAdjust="spacing" textLength="56" x="800" y="127.292">sched.h</text></g><!--entity switch.s--><g id="elem_switch.s"><rect fill="#F1F1F1" height="46.2969" rx="2.5" ry="2.5" style="stroke:#181818;stroke-width:0.5;" width="96" x="654" y="94.2969"/><rect fill="#F1F1F1" height="10" style="stroke:#181818;stroke-width:0.5;" width="15" x="730" y="99.2969"/><rect fill="#F1F1F1" height="2" style="stroke:#181818;stroke-width:0.5;" width="4" x="728" y="101.2969"/><rect fill="#F1F1F1" height="2" style="stroke:#181818;stroke-width:0.5;" width="4" x="728" y="105.2969"/><text fill="#000000" font-family="sans-serif" font-size="14" lengthAdjust="spacing" textLength="56" x="669" y="127.292">switch.s</text></g><!--entity ipc.c--><g id="elem_ipc.c"><rect fill="#F1F1F1" height="46.2969" rx="2.5" ry="2.5" style="stroke:#181818;stroke-width:0.5;" width="72" x="1177" y="94.2969"/><rect fill="#F1F1F1" height="10" style="stroke:#181818;stroke-width:0.5;" width="15" x="1229" y="99.2969"/><rect fill="#F1F1F1" height="2" style="stroke:#181818;stroke-width:0.5;" width="4" x="1227" y="101.2969"/><rect fill="#F1F1F1" height="2" style="stroke:#181818;stroke-width:0.5;" width="4" x="1227" y="105.2969"/><text fill="#000000" font-family="sans-serif" font-size="14" lengthAdjust="spacing" textLength="32" x="1192" y="127.292">ipc.c</text></g><!--entity ipc.h--><g id="elem_ipc.h"><rect fill="#F1F1F1" height="46.2969" rx="2.5" ry="2.5" style="stroke:#181818;stroke-width:0.5;" width="73" x="1068.5" y="94.2969"/><rect fill="#F1F1F1" height="10" style="stroke:#181818;stroke-width:0.5;" width="15" x="1121.5" y="99.2969"/><rect fill="#F1F1F1" height="2" style="stroke:#181818;stroke-width:0.5;" width="4" x="1119.5" y="101.2969"/><rect fill="#F1F1F1" height="2" style="stroke:#181818;stroke-width:0.5;" width="4" x="1119.5" y="105.2969"/><text fill="#000000" font-family="sans-serif" font-size="14" lengthAdjust="spacing" textLength="33" x="1083.5" y="127.292">ipc.h</text></g><!--entity kernel.c--><g id="elem_kernel.c"><rect fill="#F1F1F1" height="46.2969" rx="2.5" ry="2.5" style="stroke:#181818;stroke-width:0.5;" width="95" x="630.5" y="200.2969"/><rect fill="#F1F1F1" height="10" style="stroke:#181818;stroke-width:0.5;" width="15" x="705.5" y="205.2969"/><rect fill="#F1F1F1" height="2" style="stroke:#181818;stroke-width:0.5;" width="4" x="703.5" y="207.2969"/><rect fill="#F1F1F1" height="2" style="stroke:#181818;stroke-width:0.5;" width="4" x="703.5" y="211.2969"/><text fill="#000000" font-family="sans-serif" font-size="14" lengthAdjust="spacing" textLength="55" x="645.5" y="233.292">kernel.c</text></g><!--link heap.c to kernel.c--><g id="link_heap.c_kernel.c"><path d="M431,140.7769 C431,168.9169 431,212.2969 431,212.2969 C431,212.2969 625.38,212.2969 625.38,212.2969 " fill="none" id="heap.c-to-kernel.c" style="stroke:#181818;stroke-width:1.0;"/><polygon fill="#181818" points="630.38,212.2969,621.38,208.2969,625.38,212.2969,621.38,216.2969,630.38,212.2969" style="stroke:#181818;stroke-width:1.0;"/></g><!--link pmm.c to kernel.c--><g id="link_pmm.c_kernel.c"><path d="M309,140.2969 C309,171.4769 309,223.2969 309,223.2969 C309,223.2969 625.14,223.2969 625.14,223.2969 " fill="none" id="pmm.c-to-kernel.c" style="stroke:#181818;stroke-width:1.0;"/><polygon fill="#181818" points="630.14,223.2969,621.14,219.2969,625.14,223.2969,621.14,227.2969,630.14,223.2969" style="stroke:#181818;stroke-width:1.0;"/></g><!--link vmm.c to kernel.c--><g id="link_vmm.c_kernel.c"><path d="M188,140.3269 C188,174.6669 188,235.2969 188,235.2969 C188,235.2969 625.12,235.2969 625.12,235.2969 " fill="none" id="vmm.c-to-kernel.c" style="stroke:#181818;stroke-width:1.0;"/><polygon fill="#181818" points="630.12,235.2969,621.12,231.2969,625.12,235.2969,621.12,239.2969,630.12,235.2969" style="stroke:#181818;stroke-width:1.0;"/></g><!--link sched.c to kernel.c--><g id="link_sched.c_kernel.c"><path d="M964,140.5069 C964,169.7669 964,216.2969 964,216.2969 C964,216.2969 730.55,216.2969 730.55,216.2969 " fill="none" id="sched.c-to-kernel.c" style="stroke:#181818;stroke-width:1.0;"/><polygon fill="#181818" points="725.55,216.2969,734.55,220.2969,730.55,216.2969,734.55,212.2969,725.55,216.2969" style="stroke:#181818;stroke-width:1.0;"/></g><!--link ipc.c to kernel.c--><g id="link_ipc.c_kernel.c"><path d="M1213,140.3669 C1213,173.6769 1213,231.2969 1213,231.2969 C1213,231.2969 730.95,231.2969 730.95,231.2969 " fill="none" id="ipc.c-to-kernel.c" style="stroke:#181818;stroke-width:1.0;"/><polygon fill="#181818" points="725.95,231.2969,734.95,235.2969,730.95,231.2969,734.95,227.2969,725.95,231.2969" style="stroke:#181818;stroke-width:1.0;"/></g><rect fill="#DDDDDD" height="79.1875" id="_legend" rx="7.5" ry="7.5" style="stroke:#000000;stroke-width:1.0;" width="253" x="993" y="280.2969"/><text fill="#000000" font-family="sans-serif" font-size="14" lengthAdjust="spacing" textLength="36" x="1002" y="300.292">Color</text><text fill="#000000" font-family="sans-serif" font-size="14" lengthAdjust="spacing" textLength="36" x="1087" y="300.292">Layer</text><text fill="#000000" font-family="sans-serif" font-size="14" lengthAdjust="spacing" textLength="77" x="1002" y="316.5889">LightYellow</text><text fill="#000000" font-family="sans-serif" font-size="14" lengthAdjust="spacing" textLength="150" x="1087" y="316.5889">Memory Management</text><text fill="#000000" font-family="sans-serif" font-size="14" lengthAdjust="spacing" textLength="68" x="1002" y="332.8857">LightCoral</text><text fill="#000000" font-family="sans-serif" font-size="14" lengthAdjust="spacing" textLength="70" x="1087" y="332.8857">Scheduler</text><text fill="#000000" font-family="sans-serif" font-size="14" lengthAdjust="spacing" textLength="62" x="1002" y="349.1826">LightPink</text><text fill="#000000" font-family="sans-serif" font-size="14" lengthAdjust="spacing" textLength="22" x="1087" y="349.1826">IPC</text><line style="stroke:#000000;stroke-width:1.0;" x1="998" x2="1241" y1="287.2969" y2="287.2969"/><line style="stroke:#000000;stroke-width:1.0;" x1="998" x2="1241" y1="303.5938" y2="303.5938"/><line style="stroke:#000000;stroke-width:1.0;" x1="998" x2="1241" y1="319.8906" y2="319.8906"/><line style="stroke:#000000;stroke-width:1.0;" x1="998" x2="1241" y1="336.1875" y2="336.1875"/><line style="stroke:#000000;stroke-width:1.0;" x1="998" x2="1241" y1="352.4844" y2="352.4844"/><line style="stroke:#000000;stroke-width:1.0;" x1="998" x2="998" y1="287.2969" y2="352.4844"/><line style="stroke:#000000;stroke-width:1.0;" x1="1083" x2="1083" y1="287.2969" y2="352.4844"/><line style="stroke:#000000;stroke-width:1.0;" x1="1241" x2="1241" y1="287.2969" y2="352.4844"/><!--SRC=[ZLFBRi8m4BpxArPSk40_eA98FAAs4WO4xG6X7gnacrWuTkG4A2hzzwvn4Y85jVXYx-oiF3jU5x9G22b-BTR0PMZD3gr6zGWSKsDFFLY72KPxXRO7hyi9O_bEwanOaOAI6ejJXc1iaPX68XFXJiG8tmneZIcAhTdhQ6AKiOC1vyCXp6IS51jKoXnli-fxA_B4MA5kSqbOnLfAlVCaOoEq5mAC5LLSq7KY8dEKEePFeN9aFunruUcFHMaUyCLg0tmq7pq7F9Y__LTIzT_n7W8Nci8KTT61idrlpJP1aJs47uqWAOCiJUk4ErVueO4VF7vF3-l9Ip1zdmMhkxNN_ZlDpSSefUSEggNug1AP7sKH9W_vVThSMDshYhXEZt_mKedCmbg7ErUMJ3537Q4E9UPG6A01GbPP3lt-4BP-s5rrQNWBFjo4MTr-gy2hQHLqOOOnoM7gie5rmyhEu0Vq33DnGje9QVmCmbiZTELSFWHHwiUvfjmle0pPH1XTvozblm00]--></g></svg>