<?xml version="1.0" encoding="us-ascii" standalone="no"?><svg xmlns="http://www.w3.org/2000/svg" xmlns:xlink="http://www.w3.org/1999/xlink" contentStyleType="text/css" height="395px" preserveAspectRatio="none" style="width:919px;height:395px;background:#FFFFFF;" version="1.1" viewBox="0 0 919 395" width="919px" zoomAndPan="magnify"><defs/><g><text fill="#000000" font-family="sans-serif" font-size="14" font-weight="bold" lengthAdjust="spacing" textLength="352" x="276.5" y="22.9951">mexOS Microkernel: Memory, Scheduler, IPC</text><!--cluster Memory Management--><g id="cluster_Memory Management"><path d="M8.5,43.2969 L178.5,43.2969 A3.75,3.75 0 0 1 181,45.7969 L188,65.5938 L281.5,65.5938 A2.5,2.5 0 0 1 284,68.0938 L284,275.7969 A2.5,2.5 0 0 1 281.5,278.2969 L8.5,278.2969 A2.5,2.5 0 0 1 6,275.7969 L6,45.7969 A2.5,2.5 0 0 1 8.5,43.2969 " fill="#FFFFE0" style="stroke:#000000;stroke-width:1.5;"/><line style="stroke:#000000;stroke-width:1.5;" x1="6" x2="188" y1="65.5938" y2="65.5938"/><text fill="#000000" font-family="sans-serif" font-size="14" font-weight="bold" lengthAdjust="spacing" textLength="169" x="10" y="58.292">Memory Management</text><text fill="#000000" font-family="sans-serif" font-size="14" font-style="italic" lengthAdjust="spacing" textLength="42" x="128" y="80.5889">&#171;MM&#187;</text></g><!--cluster Scheduler--><g id="cluster_Scheduler"><path d="M620.5,43.2969 L701.5,43.2969 A3.75,3.75 0 0 1 704,45.7969 L711,65.5938 L909.5,65.5938 A2.5,2.5 0 0 1 912,68.0938 L912,275.7969 A2.5,2.5 0 0 1 909.5,278.2969 L620.5,278.2969 A2.5,2.5 0 0 1 618,275.7969 L618,45.7969 A2.5,2.5 0 0 1 620.5,43.2969 " fill="#F08080" style="stroke:#000000;stroke-width:1.5;"/><line style="stroke:#000000;stroke-width:1.5;" x1="618" x2="711" y1="65.5938" y2="65.5938"/><text fill="#000000" font-family="sans-serif" font-size="14" font-weight="bold" lengthAdjust="spacing" textLength="80" x="622" y="58.292">Scheduler</text><text fill="#000000" font-family="sans-serif" font-size="14" font-style="italic" lengthAdjust="spacing" textLength="88" x="725" y="80.5889">&#171;Scheduler&#187;</text></g><!--cluster IPC--><g id="cluster_IPC"><path d="M332.5,43.2969 L358.5,43.2969 A3.75,3.75 0 0 1 361,45.7969 L368,65.5938 L575.5,65.5938 A2.5,2.5 0 0 1 578,68.0938 L578,169.7969 A2.5,2.5 0 0 1 575.5,172.2969 L332.5,172.2969 A2.5,2.5 0 0 1 330,169.7969 L330,45.7969 A2.5,2.5 0 0 1 332.5,43.2969 " fill="#FFB6C1" style="stroke:#000000;stroke-width:1.5;"/><line style="stroke:#000000;stroke-width:1.5;" x1="330" x2="368" y1="65.5938" y2="65.5938"/><text fill="#000000" font-family="sans-serif" font-size="14" font-weight="bold" lengthAdjust="spacing" textLength="25" x="334" y="58.292">IPC</text><text fill="#000000" font-family="sans-serif" font-size="14" font-style="italic" lengthAdjust="spacing" textLength="40" x="438" y="80.5889">&#171;IPC&#187;</text></g><!--entity heap.c--><g id="elem_heap.c"><rect fill="#F1F1F1" height="46.2969" rx="2.5" ry="2.5" style="stroke:#181818;stroke-width:0.5;" width="87" x="30.5" y="102.2969"/><rect fill="#F1F1F1" height="10" style="stroke:#181818;stroke-width:0.5;" width="15" x="97.5" y="107.2969"/><rect fill="#F1F1F1" height="2" style="stroke:#181818;stroke-width:0.5;" width="4" x="95.5" y="109.2969"/><rect fill="#F1F1F1" height="2" style="stroke:#181818;stroke-width:0.5;" width="4" x="95.5" y="113.2969"/><text fill="#000000" font-family="sans-serif" font-size="14" lengthAdjust="spacing" textLength="47" x="45.5" y="135.292">heap.c</text></g><!--entity heap.h--><g id="elem_heap.h"><rect fill="#F1F1F1" height="46.2969" rx="2.5" ry="2.5" style="stroke:#181818;stroke-width:0.5;" width="88" x="153" y="102.2969"/><rect fill="#F1F1F1" height="10" style="stroke:#181818;stroke-width:0.5;" width="15" x="221" y="107.2969"/><rect fill="#F1F1F1" height="2" style="stroke:#181818;stroke-width:0.5;" width="4" x="219" y="109.2969"/><rect fill="#F1F1F1" height="2" style="stroke:#181818;stroke-width:0.5;" width="4" x="219" y="113.2969"/><text fill="#000000" font-family="sans-serif" font-size="14" lengthAdjust="spacing" textLength="48" x="168" y="135.292">heap.h</text></g><!--entity pmm.c--><g id="elem_pmm.c"><rect fill="#F1F1F1" height="46.2969" rx="2.5" ry="2.5" style="stroke:#181818;stroke-width:0.5;" width="87" x="30.5" y="208.2969"/><rect fill="#F1F1F1" height="10" style="stroke:#181818;stroke-width:0.5;" width="15" x="97.5" y="213.2969"/><rect fill="#F1F1F1" height="2" style="stroke:#181818;stroke-width:0.5;" width="4" x="95.5" y="215.2969"/><rect fill="#F1F1F1" height="2" style="stroke:#181818;stroke-width:0.5;" width="4" x="95.5" y="219.2969"/><text fill="#000000" font-family="sans-serif" font-size="14" lengthAdjust="spacing" textLength="47" x="45.5" y="241.292">pmm.c</text></g><!--entity pmm.h--><g id="elem_pmm.h"><rect fill="#F1F1F1" height="46.2969" rx="2.5" ry="2.5" style="stroke:#181818;stroke-width:0.5;" width="88" x="153" y="208.2969"/><rect fill="#F1F1F1" height="10" style="stroke:#181818;stroke-width:0.5;" width="15" x="221" y="213.2969"/><rect fill="#F1F1F1" height="2" style="stroke:#181818;stroke-width:0.5;" width="4" x="219" y="215.2969"/><rect fill="#F1F1F1" height="2" style="stroke:#181818;stroke-width:0.5;" width="4" x="219" y="219.2969"/><text fill="#000000" font-family="sans-serif" font-size="14" lengthAdjust="spacing" textLength="48" x="168" y="241.292">pmm.h</text></g><!--entity sched.c--><g id="elem_sched.c"><rect fill="#F1F1F1" height="46.2969" rx="2.5" ry="2.5" style="stroke:#181818;stroke-width:0.5;" width="95" x="661.5" y="102.2969"/><rect fill="#F1F1F1" height="10" style="stroke:#181818;stroke-width:0.5;" width="15" x="736.5" y="107.2969"/><rect fill="#F1F1F1" height="2" style="stroke:#181818;stroke-width:0.5;" width="4" x="734.5" y="109.2969"/><rect fill="#F1F1F1" height="2" style="stroke:#181818;stroke-width:0.5;" width="4" x="734.5" y="113.2969"/><text fill="#000000" font-family="sans-serif" font-size="14" lengthAdjust="spacing" textLength="55" x="676.5" y="135.292">sched.c</text></g><!--entity sched.h--><g id="elem_sched.h"><rect fill="#F1F1F1" height="46.2969" rx="2.5" ry="2.5" style="stroke:#181818;stroke-width:0.5;" width="96" x="792" y="102.2969"/><rect fill="#F1F1F1" height="10" style="stroke:#181818;stroke-width:0.5;" width="15" x="868" y="107.2969"/><rect fill="#F1F1F1" height="2" style="stroke:#181818;stroke-width:0.5;" width="4" x="866" y="109.2969"/><rect fill="#F1F1F1" height="2" style="stroke:#181818;stroke-width:0.5;" width="4" x="866" y="113.2969"/><text fill="#000000" font-family="sans-serif" font-size="14" lengthAdjust="spacing" textLength="56" x="807" y="135.292">sched.h</text></g><!--entity switch.s--><g id="elem_switch.s"><rect fill="#F1F1F1" height="46.2969" rx="2.5" ry="2.5" style="stroke:#181818;stroke-width:0.5;" width="96" x="661" y="208.2969"/><rect fill="#F1F1F1" height="10" style="stroke:#181818;stroke-width:0.5;" width="15" x="737" y="213.2969"/><rect fill="#F1F1F1" height="2" style="stroke:#181818;stroke-width:0.5;" width="4" x="735" y="215.2969"/><rect fill="#F1F1F1" height="2" style="stroke:#181818;stroke-width:0.5;" width="4" x="735" y="219.2969"/><text fill="#000000" font-family="sans-serif" font-size="14" lengthAdjust="spacing" textLength="56" x="676" y="241.292">switch.s</text></g><!--entity ipc.c--><g id="elem_ipc.c"><rect fill="#F1F1F1" height="46.2969" rx="2.5" ry="2.5" style="stroke:#181818;stroke-width:0.5;" width="72" x="482" y="102.2969"/><rect fill="#F1F1F1" height="10" style="stroke:#181818;stroke-width:0.5;" width="15" x="534" y="107.2969"/><rect fill="#F1F1F1" height="2" style="stroke:#181818;stroke-width:0.5;" width="4" x="532" y="109.2969"/><rect fill="#F1F1F1" height="2" style="stroke:#181818;stroke-width:0.5;" width="4" x="532" y="113.2969"/><text fill="#000000" font-family="sans-serif" font-size="14" lengthAdjust="spacing" textLength="32" x="497" y="135.292">ipc.c</text></g><!--entity ipc.h--><g id="elem_ipc.h"><rect fill="#F1F1F1" height="46.2969" rx="2.5" ry="2.5" style="stroke:#181818;stroke-width:0.5;" width="73" x="373.5" y="102.2969"/><rect fill="#F1F1F1" height="10" style="stroke:#181818;stroke-width:0.5;" width="15" x="426.5" y="107.2969"/><rect fill="#F1F1F1" height="2" style="stroke:#181818;stroke-width:0.5;" width="4" x="424.5" y="109.2969"/><rect fill="#F1F1F1" height="2" style="stroke:#181818;stroke-width:0.5;" width="4" x="424.5" y="113.2969"/><text fill="#000000" font-family="sans-serif" font-size="14" lengthAdjust="spacing" textLength="33" x="388.5" y="135.292">ipc.h</text></g><!--entity Core--><g id="elem_Core"><rect fill="#F1F1F1" height="46.2969" rx="2.5" ry="2.5" style="stroke:#181818;stroke-width:0.5;" width="73" x="308.5" y="208.2969"/><rect fill="#F1F1F1" height="10" style="stroke:#181818;stroke-width:0.5;" width="15" x="361.5" y="213.2969"/><rect fill="#F1F1F1" height="2" style="stroke:#181818;stroke-width:0.5;" width="4" x="359.5" y="215.2969"/><rect fill="#F1F1F1" height="2" style="stroke:#181818;stroke-width:0.5;" width="4" x="359.5" y="219.2969"/><text fill="#000000" font-family="sans-serif" font-size="14" lengthAdjust="spacing" textLength="33" x="323.5" y="241.292">Core</text></g><!--link Memory Management to Core--><g id="link_Memory Management_Core"><path d="M284.0519,125.2969 C284.1184,125.2969 284.1852,125.2969 284.2523,125.2969 C284.789,125.2969 285.3444,125.2969 285.9161,125.2969 C290.4897,125.2969 296.1069,125.2969 301.5638,125.2969 C312.4775,125.2969 322.75,125.2969 322.75,125.2969 C322.75,125.2969 322.75,203.2969 322.75,203.2969 " fill="none" id="Memory Management-to-Core" style="stroke:#181818;stroke-width:1.0;"/><polygon fill="#181818" points="322.75,208.2969,326.75,199.2969,322.75,203.2969,318.75,199.2969,322.75,208.2969" style="stroke:#181818;stroke-width:1.0;"/></g><!--link Scheduler to Core--><g id="link_Scheduler_Core"><path d="M617.4846,231.2969 C617.2968,231.2969 617.1063,231.2969 616.9129,231.2969 C616.5261,231.2969 616.1282,231.2969 615.7193,231.2969 C609.177,231.2969 599.8309,231.2969 588.6156,231.2969 C566.185,231.2969 536.2775,231.2969 506.37,231.2969 C446.555,231.2969 386.74,231.2969 386.74,231.2969 " fill="none" id="Scheduler-to-Core" style="stroke:#181818;stroke-width:1.0;"/><polygon fill="#181818" points="381.74,231.2969,390.74,235.2969,386.74,231.2969,390.74,227.2969,381.74,231.2969" style="stroke:#181818;stroke-width:1.0;"/></g><!--link IPC to Core--><g id="link_IPC_Core"><path d="M338,172.6714 C338,172.9671 338,173.2621 338,173.5563 C338,174.1448 338,174.7303 338,175.3123 C338,176.4763 338,177.6261 338,178.7571 C338,183.2812 338,187.5036 338,191.1228 C338,198.3612 338,203.1869 338,203.1869 " fill="none" id="IPC-to-Core" style="stroke:#181818;stroke-width:1.0;"/><polygon fill="#181818" points="338,208.1869,342,199.1869,338,203.1869,334,199.1869,338,208.1869" style="stroke:#181818;stroke-width:1.0;"/></g><rect fill="#DDDDDD" height="79.1875" id="_legend" rx="7.5" ry="7.5" style="stroke:#000000;stroke-width:1.0;" width="253" x="640" y="296.2969"/><text fill="#000000" font-family="sans-serif" font-size="14" lengthAdjust="spacing" textLength="36" x="649" y="316.292">Color</text><text fill="#000000" font-family="sans-serif" font-size="14" lengthAdjust="spacing" textLength="36" x="734" y="316.292">Layer</text><text fill="#000000" font-family="sans-serif" font-size="14" lengthAdjust="spacing" textLength="77" x="649" y="332.5889">LightYellow</text><text fill="#000000" font-family="sans-serif" font-size="14" lengthAdjust="spacing" textLength="150" x="734" y="332.5889">Memory Management</text><text fill="#000000" font-family="sans-serif" font-size="14" lengthAdjust="spacing" textLength="68" x="649" y="348.8857">LightCoral</text><text fill="#000000" font-family="sans-serif" font-size="14" lengthAdjust="spacing" textLength="70" x="734" y="348.8857">Scheduler</text><text fill="#000000" font-family="sans-serif" font-size="14" lengthAdjust="spacing" textLength="62" x="649" y="365.1826">LightPink</text><text fill="#000000" font-family="sans-serif" font-size="14" lengthAdjust="spacing" textLength="22" x="734" y="365.1826">IPC</text><line style="stroke:#000000;stroke-width:1.0;" x1="645" x2="888" y1="303.2969" y2="303.2969"/><line style="stroke:#000000;stroke-width:1.0;" x1="645" x2="888" y1="319.5938" y2="319.5938"/><line style="stroke:#000000;stroke-width:1.0;" x1="645" x2="888" y1="335.8906" y2="335.8906"/><line style="stroke:#000000;stroke-width:1.0;" x1="645" x2="888" y1="352.1875" y2="352.1875"/><line style="stroke:#000000;stroke-width:1.0;" x1="645" x2="888" y1="368.4844" y2="368.4844"/><line style="stroke:#000000;stroke-width:1.0;" x1="645" x2="645" y1="303.2969" y2="368.4844"/><line style="stroke:#000000;stroke-width:1.0;" x1="730" x2="730" y1="303.2969" y2="368.4844"/><line style="stroke:#000000;stroke-width:1.0;" x1="888" x2="888" y1="303.2969" y2="368.4844"/><!--SRC=[RL51Ri8m4Bpx5IiklG0Fg107wAKI4KYSgeY3vMnZAuvjEKOKbVwzwpWnGP2BlREJsPbrK44ZjFYpFqAXXBSDUeFw7GfihR_EuIWaLcUDVWwVXorZNQECuvwte9N1S7K8rWTf9mt7HSDhX5y6z6seghqzcsfhjVMhLL6irx1JjGnVgBMzl6RbkIDvQptNhxbaR6GTb6aIoVeAVK-0ZQO_UlGeUMKlojJmpNM7x8-nqUqi9OQ26ofRD646WzaKf9J8tLAS9eKS2jUskH7lX4-LSvQeE0qs27SHoWAf6gMxYmf2Bhj7HKeSjLBmGKKvaJNYFPbuWmzqQ2eqGc77ogUK9rWirb3IUl74okpk4QP13m39xh0cMQRx0tnSFhj1MlWDTloAT18oUMd2dyRVEVq34oLRkBVYgrA7N116uzBGVm00]--></g></svg>