<?xml version="1.0" encoding="us-ascii" standalone="no"?><svg xmlns="http://www.w3.org/2000/svg" xmlns:xlink="http://www.w3.org/1999/xlink" contentStyleType="text/css" height="1053px" preserveAspectRatio="none" style="width:751px;height:1053px;background:#FFFFFF;" version="1.1" viewBox="0 0 751 1053" width="751px" zoomAndPan="magnify"><defs/><g><text fill="#000000" font-family="sans-serif" font-size="14" font-weight="bold" lengthAdjust="spacing" textLength="393" x="172" y="22.9951">mexOS Microkernel: UI, Apps, SysMon &amp; Userland</text><!--cluster Core--><g id="cluster_Core"><path d="M140.5,368.2969 L179.5,368.2969 A3.75,3.75 0 0 1 182,370.7969 L189,390.5938 L389.5,390.5938 A2.5,2.5 0 0 1 392,393.0938 L392,478.7969 A2.5,2.5 0 0 1 389.5,481.2969 L140.5,481.2969 A2.5,2.5 0 0 1 138,478.7969 L138,370.7969 A2.5,2.5 0 0 1 140.5,368.2969 " fill="#90EE90" style="stroke:#000000;stroke-width:1.5;"/><line style="stroke:#000000;stroke-width:1.5;" x1="138" x2="189" y1="390.5938" y2="390.5938"/><text fill="#000000" font-family="sans-serif" font-size="14" font-weight="bold" lengthAdjust="spacing" textLength="38" x="142" y="383.292">Core</text><text fill="#000000" font-family="sans-serif" font-size="14" font-style="italic" lengthAdjust="spacing" textLength="51" x="243.5" y="405.5889">&#171;Core&#187;</text></g><!--cluster UI--><g id="cluster_UI"><path d="M526.5,618.2969 L542.5,618.2969 A3.75,3.75 0 0 1 545,620.7969 L552,640.5938 L741.5,640.5938 A2.5,2.5 0 0 1 744,643.0938 L744,900.7969 A2.5,2.5 0 0 1 741.5,903.2969 L526.5,903.2969 A2.5,2.5 0 0 1 524,900.7969 L524,620.7969 A2.5,2.5 0 0 1 526.5,618.2969 " fill="#E0FFFF" style="stroke:#000000;stroke-width:1.5;"/><line style="stroke:#000000;stroke-width:1.5;" x1="524" x2="552" y1="640.5938" y2="640.5938"/><text fill="#000000" font-family="sans-serif" font-size="14" font-weight="bold" lengthAdjust="spacing" textLength="15" x="528" y="633.292">UI</text><text fill="#000000" font-family="sans-serif" font-size="14" font-style="italic" lengthAdjust="spacing" textLength="32" x="622" y="655.5889">&#171;UI&#187;</text></g><!--cluster Apps--><g id="cluster_Apps"><path d="M8.5,505.2969 L49.5,505.2969 A3.75,3.75 0 0 1 52,507.7969 L59,527.5938 L297.5,527.5938 A2.5,2.5 0 0 1 300,530.0938 L300,728.7969 A2.5,2.5 0 0 1 297.5,731.2969 L8.5,731.2969 A2.5,2.5 0 0 1 6,728.7969 L6,507.7969 A2.5,2.5 0 0 1 8.5,505.2969 " fill="#FAFAD2" style="stroke:#000000;stroke-width:1.5;"/><line style="stroke:#000000;stroke-width:1.5;" x1="6" x2="59" y1="527.5938" y2="527.5938"/><text fill="#000000" font-family="sans-serif" font-size="14" font-weight="bold" lengthAdjust="spacing" textLength="40" x="10" y="520.292">Apps</text><text fill="#000000" font-family="sans-serif" font-size="14" font-style="italic" lengthAdjust="spacing" textLength="53" x="130.5" y="542.5889">&#171;Apps&#187;</text></g><!--cluster SysMon--><g id="cluster_SysMon"><path d="M364.5,618.2969 L426.5,618.2969 A3.75,3.75 0 0 1 429,620.7969 L436,640.5938 L497.5,640.5938 A2.5,2.5 0 0 1 500,643.0938 L500,728.7969 A2.5,2.5 0 0 1 497.5,731.2969 L364.5,731.2969 A2.5,2.5 0 0 1 362,728.7969 L362,620.7969 A2.5,2.5 0 0 1 364.5,618.2969 " fill="#D8BFD8" style="stroke:#000000;stroke-width:1.5;"/><line style="stroke:#000000;stroke-width:1.5;" x1="362" x2="436" y1="640.5938" y2="640.5938"/><text fill="#000000" font-family="sans-serif" font-size="14" font-weight="bold" lengthAdjust="spacing" textLength="61" x="366" y="633.292">SysMon</text><text fill="#000000" font-family="sans-serif" font-size="14" font-style="italic" lengthAdjust="spacing" textLength="72" x="399" y="655.5889">&#171;SysMon&#187;</text></g><!--cluster User Space--><g id="cluster_User Space"><path d="M293.5,43.2969 L384.5,43.2969 A3.75,3.75 0 0 1 387,45.7969 L394,65.5938 L613.5,65.5938 A2.5,2.5 0 0 1 616,68.0938 L616,341.7969 A2.5,2.5 0 0 1 613.5,344.2969 L293.5,344.2969 A2.5,2.5 0 0 1 291,341.7969 L291,45.7969 A2.5,2.5 0 0 1 293.5,43.2969 " fill="#FFFFFF" style="stroke:#000000;stroke-width:1.5;"/><line style="stroke:#000000;stroke-width:1.5;" x1="291" x2="394" y1="65.5938" y2="65.5938"/><text fill="#000000" font-family="sans-serif" font-size="14" font-weight="bold" lengthAdjust="spacing" textLength="90" x="295" y="58.292">User Space</text><text fill="#000000" font-family="sans-serif" font-size="14" font-style="italic" lengthAdjust="spacing" textLength="49" x="433" y="80.5889">&#171;User&#187;</text></g><!--cluster init--><g id="cluster_init"><path d="M470.5,102.2969 L495.5,102.2969 A3.75,3.75 0 0 1 498,104.7969 L505,124.5938 L569.5,124.5938 A2.5,2.5 0 0 1 572,127.0938 L572,196.7969 A2.5,2.5 0 0 1 569.5,199.2969 L470.5,199.2969 A2.5,2.5 0 0 1 468,196.7969 L468,104.7969 A2.5,2.5 0 0 1 470.5,102.2969 " fill="none" style="stroke:#000000;stroke-width:1.5;"/><line style="stroke:#000000;stroke-width:1.5;" x1="468" x2="505" y1="124.5938" y2="124.5938"/><text fill="#000000" font-family="sans-serif" font-size="14" font-weight="bold" lengthAdjust="spacing" textLength="24" x="472" y="117.292">init</text></g><!--cluster lib--><g id="cluster_lib"><path d="M317.5,223.2969 L336.5,223.2969 A3.75,3.75 0 0 1 339,225.7969 L346,245.5938 L589.5,245.5938 A2.5,2.5 0 0 1 592,248.0938 L592,317.7969 A2.5,2.5 0 0 1 589.5,320.2969 L317.5,320.2969 A2.5,2.5 0 0 1 315,317.7969 L315,225.7969 A2.5,2.5 0 0 1 317.5,223.2969 " fill="none" style="stroke:#000000;stroke-width:1.5;"/><line style="stroke:#000000;stroke-width:1.5;" x1="315" x2="346" y1="245.5938" y2="245.5938"/><text fill="#000000" font-family="sans-serif" font-size="14" font-weight="bold" lengthAdjust="spacing" textLength="18" x="319" y="238.292">lib</text></g><!--entity kernel.c--><g id="elem_kernel.c"><rect fill="#F1F1F1" height="46.2969" rx="2.5" ry="2.5" style="stroke:#181818;stroke-width:0.5;" width="95" x="280.5" y="419.2969"/><rect fill="#F1F1F1" height="10" style="stroke:#181818;stroke-width:0.5;" width="15" x="355.5" y="424.2969"/><rect fill="#F1F1F1" height="2" style="stroke:#181818;stroke-width:0.5;" width="4" x="353.5" y="426.2969"/><rect fill="#F1F1F1" height="2" style="stroke:#181818;stroke-width:0.5;" width="4" x="353.5" y="430.2969"/><text fill="#000000" font-family="sans-serif" font-size="14" lengthAdjust="spacing" textLength="55" x="295.5" y="452.292">kernel.c</text></g><!--entity syscall.c--><g id="elem_syscall.c"><rect fill="#F1F1F1" height="46.2969" rx="2.5" ry="2.5" style="stroke:#181818;stroke-width:0.5;" width="97" x="153.5" y="419.2969"/><rect fill="#F1F1F1" height="10" style="stroke:#181818;stroke-width:0.5;" width="15" x="230.5" y="424.2969"/><rect fill="#F1F1F1" height="2" style="stroke:#181818;stroke-width:0.5;" width="4" x="228.5" y="426.2969"/><rect fill="#F1F1F1" height="2" style="stroke:#181818;stroke-width:0.5;" width="4" x="228.5" y="430.2969"/><text fill="#000000" font-family="sans-serif" font-size="14" lengthAdjust="spacing" textLength="57" x="168.5" y="452.292">syscall.c</text></g><!--entity console.c--><g id="elem_console.c"><rect fill="#F1F1F1" height="46.2969" rx="2.5" ry="2.5" style="stroke:#181818;stroke-width:0.5;" width="107" x="539.5" y="755.2969"/><rect fill="#F1F1F1" height="10" style="stroke:#181818;stroke-width:0.5;" width="15" x="626.5" y="760.2969"/><rect fill="#F1F1F1" height="2" style="stroke:#181818;stroke-width:0.5;" width="4" x="624.5" y="762.2969"/><rect fill="#F1F1F1" height="2" style="stroke:#181818;stroke-width:0.5;" width="4" x="624.5" y="766.2969"/><text fill="#000000" font-family="sans-serif" font-size="14" lengthAdjust="spacing" textLength="67" x="554.5" y="788.292">console.c</text></g><!--entity vterm.c--><g id="elem_vterm.c"><rect fill="#F1F1F1" height="46.2969" rx="2.5" ry="2.5" style="stroke:#181818;stroke-width:0.5;" width="91" x="547.5" y="841.2969"/><rect fill="#F1F1F1" height="10" style="stroke:#181818;stroke-width:0.5;" width="15" x="618.5" y="846.2969"/><rect fill="#F1F1F1" height="2" style="stroke:#181818;stroke-width:0.5;" width="4" x="616.5" y="848.2969"/><rect fill="#F1F1F1" height="2" style="stroke:#181818;stroke-width:0.5;" width="4" x="616.5" y="852.2969"/><text fill="#000000" font-family="sans-serif" font-size="14" lengthAdjust="spacing" textLength="51" x="562.5" y="874.292">vterm.c</text></g><!--entity basic.c--><g id="elem_basic.c"><rect fill="#F1F1F1" height="46.2969" rx="2.5" ry="2.5" style="stroke:#181818;stroke-width:0.5;" width="88" x="640" y="669.2969"/><rect fill="#F1F1F1" height="10" style="stroke:#181818;stroke-width:0.5;" width="15" x="708" y="674.2969"/><rect fill="#F1F1F1" height="2" style="stroke:#181818;stroke-width:0.5;" width="4" x="706" y="676.2969"/><rect fill="#F1F1F1" height="2" style="stroke:#181818;stroke-width:0.5;" width="4" x="706" y="680.2969"/><text fill="#000000" font-family="sans-serif" font-size="14" lengthAdjust="spacing" textLength="48" x="655" y="702.292">basic.c</text></g><!--entity tui.c--><g id="elem_tui.c"><rect fill="#F1F1F1" height="46.2969" rx="2.5" ry="2.5" style="stroke:#181818;stroke-width:0.5;" width="69" x="540.5" y="669.2969"/><rect fill="#F1F1F1" height="10" style="stroke:#181818;stroke-width:0.5;" width="15" x="589.5" y="674.2969"/><rect fill="#F1F1F1" height="2" style="stroke:#181818;stroke-width:0.5;" width="4" x="587.5" y="676.2969"/><rect fill="#F1F1F1" height="2" style="stroke:#181818;stroke-width:0.5;" width="4" x="587.5" y="680.2969"/><text fill="#000000" font-family="sans-serif" font-size="14" lengthAdjust="spacing" textLength="29" x="555.5" y="702.292">tui.c</text></g><!--entity shell.c--><g id="elem_shell.c"><rect fill="#F1F1F1" height="46.2969" rx="2.5" ry="2.5" style="stroke:#181818;stroke-width:0.5;" width="84" x="200" y="556.2969"/><rect fill="#F1F1F1" height="10" style="stroke:#181818;stroke-width:0.5;" width="15" x="264" y="561.2969"/><rect fill="#F1F1F1" height="2" style="stroke:#181818;stroke-width:0.5;" width="4" x="262" y="563.2969"/><rect fill="#F1F1F1" height="2" style="stroke:#181818;stroke-width:0.5;" width="4" x="262" y="567.2969"/><text fill="#000000" font-family="sans-serif" font-size="14" lengthAdjust="spacing" textLength="44" x="215" y="589.292">shell.c</text></g><!--entity editor.c--><g id="elem_editor.c"><rect fill="#F1F1F1" height="46.2969" rx="2.5" ry="2.5" style="stroke:#181818;stroke-width:0.5;" width="92" x="22" y="669.2969"/><rect fill="#F1F1F1" height="10" style="stroke:#181818;stroke-width:0.5;" width="15" x="94" y="674.2969"/><rect fill="#F1F1F1" height="2" style="stroke:#181818;stroke-width:0.5;" width="4" x="92" y="676.2969"/><rect fill="#F1F1F1" height="2" style="stroke:#181818;stroke-width:0.5;" width="4" x="92" y="680.2969"/><text fill="#000000" font-family="sans-serif" font-size="14" lengthAdjust="spacing" textLength="52" x="37" y="702.292">editor.c</text></g><!--entity disk_installer.c--><g id="elem_disk_installer.c"><rect fill="#F1F1F1" height="46.2969" rx="2.5" ry="2.5" style="stroke:#181818;stroke-width:0.5;" width="140" x="144" y="669.2969"/><rect fill="#F1F1F1" height="10" style="stroke:#181818;stroke-width:0.5;" width="15" x="264" y="674.2969"/><rect fill="#F1F1F1" height="2" style="stroke:#181818;stroke-width:0.5;" width="4" x="262" y="676.2969"/><rect fill="#F1F1F1" height="2" style="stroke:#181818;stroke-width:0.5;" width="4" x="262" y="680.2969"/><text fill="#000000" font-family="sans-serif" font-size="14" lengthAdjust="spacing" textLength="100" x="159" y="702.292">disk_installer.c</text></g><!--entity sysmon.c--><g id="elem_sysmon.c"><rect fill="#F1F1F1" height="46.2969" rx="2.5" ry="2.5" style="stroke:#181818;stroke-width:0.5;" width="106" x="378" y="669.2969"/><rect fill="#F1F1F1" height="10" style="stroke:#181818;stroke-width:0.5;" width="15" x="464" y="674.2969"/><rect fill="#F1F1F1" height="2" style="stroke:#181818;stroke-width:0.5;" width="4" x="462" y="676.2969"/><rect fill="#F1F1F1" height="2" style="stroke:#181818;stroke-width:0.5;" width="4" x="462" y="680.2969"/><text fill="#000000" font-family="sans-serif" font-size="14" lengthAdjust="spacing" textLength="66" x="393" y="702.292">sysmon.c</text></g><!--entity bins--><g id="elem_bins"><rect fill="#F1F1F1" height="46.2969" rx="2.5" ry="2.5" style="stroke:#181818;stroke-width:0.5;" width="131" x="320.5" y="137.2969"/><rect fill="#F1F1F1" height="10" style="stroke:#181818;stroke-width:0.5;" width="15" x="431.5" y="142.2969"/><rect fill="#F1F1F1" height="2" style="stroke:#181818;stroke-width:0.5;" width="4" x="429.5" y="144.2969"/><rect fill="#F1F1F1" height="2" style="stroke:#181818;stroke-width:0.5;" width="4" x="429.5" y="148.2969"/><text fill="#000000" font-family="sans-serif" font-size="14" lengthAdjust="spacing" textLength="91" x="335.5" y="170.292">bin programs</text></g><!--entity init.c--><g id="elem_init.c"><rect fill="#F1F1F1" height="46.2969" rx="2.5" ry="2.5" style="stroke:#181818;stroke-width:0.5;" width="72" x="484" y="137.2969"/><rect fill="#F1F1F1" height="10" style="stroke:#181818;stroke-width:0.5;" width="15" x="536" y="142.2969"/><rect fill="#F1F1F1" height="2" style="stroke:#181818;stroke-width:0.5;" width="4" x="534" y="144.2969"/><rect fill="#F1F1F1" height="2" style="stroke:#181818;stroke-width:0.5;" width="4" x="534" y="148.2969"/><text fill="#000000" font-family="sans-serif" font-size="14" lengthAdjust="spacing" textLength="32" x="499" y="170.292">init.c</text></g><!--entity crt0.s--><g id="elem_crt0.s"><rect fill="#F1F1F1" height="46.2969" rx="2.5" ry="2.5" style="stroke:#181818;stroke-width:0.5;" width="79" x="497.5" y="258.2969"/><rect fill="#F1F1F1" height="10" style="stroke:#181818;stroke-width:0.5;" width="15" x="556.5" y="263.2969"/><rect fill="#F1F1F1" height="2" style="stroke:#181818;stroke-width:0.5;" width="4" x="554.5" y="265.2969"/><rect fill="#F1F1F1" height="2" style="stroke:#181818;stroke-width:0.5;" width="4" x="554.5" y="269.2969"/><text fill="#000000" font-family="sans-serif" font-size="14" lengthAdjust="spacing" textLength="39" x="512.5" y="291.292">crt0.s</text></g><!--entity usc--><g id="elem_usc"><rect fill="#F1F1F1" height="46.2969" rx="2.5" ry="2.5" style="stroke:#181818;stroke-width:0.5;" width="136" x="331" y="258.2969"/><rect fill="#F1F1F1" height="10" style="stroke:#181818;stroke-width:0.5;" width="15" x="447" y="263.2969"/><rect fill="#F1F1F1" height="2" style="stroke:#181818;stroke-width:0.5;" width="4" x="445" y="265.2969"/><rect fill="#F1F1F1" height="2" style="stroke:#181818;stroke-width:0.5;" width="4" x="445" y="269.2969"/><text fill="#000000" font-family="sans-serif" font-size="14" lengthAdjust="spacing" textLength="96" x="346" y="291.292">user_syscall.h</text></g><!--link kernel.c to shell.c--><g id="link_kernel.c_shell.c"><path d="M280.31,442.2969 C271.76,442.2969 265.5,442.2969 265.5,442.2969 C265.5,442.2969 265.5,551.0569 265.5,551.0569 " fill="none" id="kernel.c-to-shell.c" style="stroke:#181818;stroke-width:1.0;"/><polygon fill="#181818" points="265.5,556.0569,269.5,547.0569,265.5,551.0569,261.5,547.0569,265.5,556.0569" style="stroke:#181818;stroke-width:1.0;"/><text fill="#000000" font-family="sans-serif" font-size="13" lengthAdjust="spacing" textLength="153" x="111.5" y="485.3338">CONFIG_KERNEL_SHELL</text></g><!--link console.c to vterm.c--><g id="link_console.c_vterm.c"><path d="M593,801.3469 C593,801.3469 593,836.1869 593,836.1869 " fill="none" id="console.c-to-vterm.c" style="stroke:#181818;stroke-width:1.0;"/><polygon fill="#181818" points="593,841.1869,597,832.1869,593,836.1869,589,832.1869,593,841.1869" style="stroke:#181818;stroke-width:1.0;"/></g><!--link shell.c to console.c--><g id="link_shell.c_console.c"><path d="M284.22,575.2969 C382.77,575.2969 619.67,575.2969 619.67,575.2969 C619.67,575.2969 619.67,750.0069 619.67,750.0069 " fill="none" id="shell.c-to-console.c" style="stroke:#181818;stroke-width:1.0;"/><polygon fill="#181818" points="619.67,755.0069,623.67,746.0069,619.67,750.0069,615.67,746.0069,619.67,755.0069" style="stroke:#181818;stroke-width:1.0;"/></g><!--link shell.c to tui.c--><g id="link_shell.c_tui.c"><path d="M284.03,584.2969 C370.12,584.2969 558.5,584.2969 558.5,584.2969 C558.5,584.2969 558.5,664.1269 558.5,664.1269 " fill="none" id="shell.c-to-tui.c" style="stroke:#181818;stroke-width:1.0;"/><polygon fill="#181818" points="558.5,669.1269,562.5,660.1269,558.5,664.1269,554.5,660.1269,558.5,669.1269" style="stroke:#181818;stroke-width:1.0;"/></g><!--link shell.c to disk_installer.c--><g id="link_shell.c_disk_installer.c"><path d="M242,602.4369 C242,602.4369 242,664.1869 242,664.1869 " fill="none" id="shell.c-to-disk_installer.c" style="stroke:#181818;stroke-width:1.0;"/><polygon fill="#181818" points="242,669.1869,246,660.1869,242,664.1869,238,660.1869,242,669.1869" style="stroke:#181818;stroke-width:1.0;"/></g><!--link shell.c to editor.c--><g id="link_shell.c_editor.c"><path d="M199.88,579.2969 C148.38,579.2969 68,579.2969 68,579.2969 C68,579.2969 68,664.1569 68,664.1569 " fill="none" id="shell.c-to-editor.c" style="stroke:#181818;stroke-width:1.0;"/><polygon fill="#181818" points="68,669.1569,72,660.1569,68,664.1569,64,660.1569,68,669.1569" style="stroke:#181818;stroke-width:1.0;"/></g><!--link shell.c to sysmon.c--><g id="link_shell.c_sysmon.c"><path d="M284.23,593.2969 C333.32,593.2969 407.67,593.2969 407.67,593.2969 C407.67,593.2969 407.67,664.0869 407.67,664.0869 " fill="none" id="shell.c-to-sysmon.c" style="stroke:#181818;stroke-width:1.0;"/><polygon fill="#181818" points="407.67,669.0869,411.67,660.0869,407.67,664.0869,403.67,660.0869,407.67,669.0869" style="stroke:#181818;stroke-width:1.0;"/><text fill="#000000" font-family="sans-serif" font-size="13" lengthAdjust="spacing" textLength="86" x="294.34" y="589.3638">sysmon_init()</text></g><!--link shell.c to basic.c--><g id="link_shell.c_basic.c"><path d="M284.14,566.2969 C391.95,566.2969 669.33,566.2969 669.33,566.2969 C669.33,566.2969 669.33,664.1869 669.33,664.1869 " fill="none" id="shell.c-to-basic.c" style="stroke:#181818;stroke-width:1.0;"/><polygon fill="#181818" points="669.33,669.1869,673.33,660.1869,669.33,664.1869,665.33,660.1869,669.33,669.1869" style="stroke:#181818;stroke-width:1.0;"/><text fill="#000000" font-family="sans-serif" font-size="13" lengthAdjust="spacing" textLength="69" x="455.68" y="562.3638">basic_init()</text></g><!--link tui.c to console.c--><g id="link_tui.c_console.c"><path d="M586.5,715.3469 C586.5,715.3469 586.5,750.1869 586.5,750.1869 " fill="none" id="tui.c-to-console.c" style="stroke:#181818;stroke-width:1.0;"/><polygon fill="#181818" points="586.5,755.1869,590.5,746.1869,586.5,750.1869,582.5,746.1869,586.5,755.1869" style="stroke:#181818;stroke-width:1.0;"/></g><!--link tui.c to editor.c--><g id="link_tui.c_editor.c"><path d="M563.5,715.5169 C563.5,722.9569 563.5,729.2969 563.5,729.2969 C563.5,729.2969 91,729.2969 91,729.2969 C91,729.2969 91,720.5169 91,720.5169 " fill="none" id="tui.c-to-editor.c" style="stroke:#181818;stroke-width:1.0;"/><polygon fill="#181818" points="91,715.5169,87,724.5169,91,720.5169,95,724.5169,91,715.5169" style="stroke:#181818;stroke-width:1.0;"/></g><!--link editor.c to console.c--><g id="link_editor.c_console.c"><path d="M68,715.5169 C68,744.4969 68,790.2969 68,790.2969 C68,790.2969 534.28,790.2969 534.28,790.2969 " fill="none" id="editor.c-to-console.c" style="stroke:#181818;stroke-width:1.0;"/><polygon fill="#181818" points="539.28,790.2969,530.28,786.2969,534.28,790.2969,530.28,794.2969,539.28,790.2969" style="stroke:#181818;stroke-width:1.0;"/></g><!--link editor.c to basic.c--><g id="link_editor.c_basic.c"><path d="M45,715.5369 C45,728.5969 45,742.2969 45,742.2969 C45,742.2969 687.25,742.2969 687.25,742.2969 C687.25,742.2969 687.25,720.5369 687.25,720.5369 " fill="none" id="editor.c-to-basic.c" style="stroke:#181818;stroke-width:1.0;"/><polygon fill="#181818" points="687.25,715.5369,683.25,724.5369,687.25,720.5369,691.25,724.5369,687.25,715.5369" style="stroke:#181818;stroke-width:1.0;"/></g><!--link disk_installer.c to console.c--><g id="link_disk_installer.c_console.c"><path d="M214,715.3469 C214,740.8169 214,778.2969 214,778.2969 C214,778.2969 534.1,778.2969 534.1,778.2969 " fill="none" id="disk_installer.c-to-console.c" style="stroke:#181818;stroke-width:1.0;"/><polygon fill="#181818" points="539.1,778.2969,530.1,774.2969,534.1,778.2969,530.1,782.2969,539.1,778.2969" style="stroke:#181818;stroke-width:1.0;"/></g><!--link sysmon.c to console.c--><g id="link_sysmon.c_console.c"><path d="M431,715.6169 C431,737.6369 431,767.2969 431,767.2969 C431,767.2969 534.06,767.2969 534.06,767.2969 " fill="none" id="sysmon.c-to-console.c" style="stroke:#181818;stroke-width:1.0;"/><polygon fill="#181818" points="539.06,767.2969,530.06,763.2969,534.06,767.2969,530.06,771.2969,539.06,767.2969" style="stroke:#181818;stroke-width:1.0;"/></g><!--link basic.c to console.c--><g id="link_basic.c_console.c"><path d="M639.77,692.2969 C633.88,692.2969 629.83,692.2969 629.83,692.2969 C629.83,692.2969 629.83,750.2469 629.83,750.2469 " fill="none" id="basic.c-to-console.c" style="stroke:#181818;stroke-width:1.0;"/><polygon fill="#181818" points="629.83,755.2469,633.83,746.2469,629.83,750.2469,625.83,746.2469,629.83,755.2469" style="stroke:#181818;stroke-width:1.0;"/></g><!--link basic.c to usc--><g id="link_basic.c_usc"><path d="M698.67,669.1969 C698.67,653.7669 698.67,636.2969 698.67,636.2969 C698.67,636.2969 437.33,636.2969 437.33,636.2969 C437.33,636.2969 437.33,309.3169 437.33,309.3169 " fill="none" id="basic.c-to-usc" style="stroke:#181818;stroke-width:1.0;stroke-dasharray:7.0,7.0;"/><polygon fill="#181818" points="437.33,304.3169,433.33,313.3169,437.33,309.3169,441.33,313.3169,437.33,304.3169" style="stroke:#181818;stroke-width:1.0;"/><polygon fill="none" points="443.33,599.5597,447.33,603.5597,443.33,607.5597,439.33,603.5597" style="stroke:#B38D22;stroke-width:1.0;"/><text fill="#000000" font-family="sans-serif" font-size="13" lengthAdjust="spacing" textLength="93" x="500.33" y="600.9938">include (kernel</text><text fill="#000000" font-family="sans-serif" font-size="13" lengthAdjust="spacing" textLength="193" x="450.33" y="616.1266">includes user header &#8212; verify)</text></g><!--link bins to usc--><g id="link_bins_usc"><path d="M391.25,183.3369 C391.25,183.3369 391.25,252.9269 391.25,252.9269 " fill="none" id="bins-to-usc" style="stroke:#181818;stroke-width:1.0;"/><polygon fill="#181818" points="391.25,257.9269,395.25,248.9269,391.25,252.9269,387.25,248.9269,391.25,257.9269" style="stroke:#181818;stroke-width:1.0;"/><text fill="#000000" font-family="sans-serif" font-size="13" lengthAdjust="spacing" textLength="104" x="286.25" y="214.2038">syscall wrappers</text></g><!--link init.c to usc--><g id="link_init.c_usc"><path d="M490.75,183.3369 C490.75,218.4469 490.75,281.2969 490.75,281.2969 C490.75,281.2969 472.12,281.2969 472.12,281.2969 " fill="none" id="init.c-to-usc" style="stroke:#181818;stroke-width:1.0;"/><polygon fill="#181818" points="467.12,281.2969,476.12,285.2969,472.12,281.2969,476.12,277.2969,467.12,281.2969" style="stroke:#181818;stroke-width:1.0;"/></g><!--link usc to syscall.c--><g id="link_usc_syscall.c"><path d="M330.93,281.2969 C273.99,281.2969 202,281.2969 202,281.2969 C202,281.2969 202,414.2269 202,414.2269 " fill="none" id="usc-to-syscall.c" style="stroke:#181818;stroke-width:1.0;stroke-dasharray:7.0,7.0;"/><polygon fill="#181818" points="202,419.2269,206,410.2269,202,414.2269,198,410.2269,202,419.2269" style="stroke:#181818;stroke-width:1.0;"/><text fill="#000000" font-family="sans-serif" font-size="13" lengthAdjust="spacing" textLength="81" x="72" y="264.3638">int 0x80 trap</text><text fill="#000000" font-family="sans-serif" font-size="13" lengthAdjust="spacing" textLength="177" x="24" y="279.4966">(runtime, not compile-time)</text></g><rect fill="#DDDDDD" height="111.7813" id="_legend" rx="7.5" ry="7.5" style="stroke:#000000;stroke-width:1.0;" width="260" x="465" y="921.2969"/><text fill="#000000" font-family="sans-serif" font-size="14" lengthAdjust="spacing" textLength="36" x="474" y="941.292">Color</text><text fill="#000000" font-family="sans-serif" font-size="14" lengthAdjust="spacing" textLength="36" x="637" y="941.292">Layer</text><text fill="#000000" font-family="sans-serif" font-size="14" lengthAdjust="spacing" textLength="67" x="474" y="957.5889">LightCyan</text><text fill="#000000" font-family="sans-serif" font-size="14" lengthAdjust="spacing" textLength="13" x="637" y="957.5889">UI</text><text fill="#000000" font-family="sans-serif" font-size="14" lengthAdjust="spacing" textLength="155" x="474" y="973.8857">LightGoldenRodYellow</text><text fill="#000000" font-family="sans-serif" font-size="14" lengthAdjust="spacing" textLength="35" x="637" y="973.8857">Apps</text><text fill="#000000" font-family="sans-serif" font-size="14" lengthAdjust="spacing" textLength="46" x="474" y="990.1826">Thistle</text><text fill="#000000" font-family="sans-serif" font-size="14" lengthAdjust="spacing" textLength="54" x="637" y="990.1826">SysMon</text><text fill="#000000" font-family="sans-serif" font-size="14" lengthAdjust="spacing" textLength="84" x="474" y="1006.4795">LightOrange</text><text fill="#000000" font-family="sans-serif" font-size="14" lengthAdjust="spacing" textLength="79" x="637" y="1006.4795">User Space</text><text fill="#000000" font-family="sans-serif" font-size="14" lengthAdjust="spacing" textLength="76" x="474" y="1022.7764">LightGreen</text><text fill="#000000" font-family="sans-serif" font-size="14" lengthAdjust="spacing" textLength="33" x="637" y="1022.7764">Core</text><line style="stroke:#000000;stroke-width:1.0;" x1="470" x2="720" y1="928.2969" y2="928.2969"/><line style="stroke:#000000;stroke-width:1.0;" x1="470" x2="720" y1="944.5938" y2="944.5938"/><line style="stroke:#000000;stroke-width:1.0;" x1="470" x2="720" y1="960.8906" y2="960.8906"/><line style="stroke:#000000;stroke-width:1.0;" x1="470" x2="720" y1="977.1875" y2="977.1875"/><line style="stroke:#000000;stroke-width:1.0;" x1="470" x2="720" y1="993.4844" y2="993.4844"/><line style="stroke:#000000;stroke-width:1.0;" x1="470" x2="720" y1="1009.7813" y2="1009.7813"/><line style="stroke:#000000;stroke-width:1.0;" x1="470" x2="720" y1="1026.0781" y2="1026.0781"/><line style="stroke:#000000;stroke-width:1.0;" x1="470" x2="470" y1="928.2969" y2="1026.0781"/><line style="stroke:#000000;stroke-width:1.0;" x1="633" x2="633" y1="928.2969" y2="1026.0781"/><line style="stroke:#000000;stroke-width:1.0;" x1="720" x2="720" y1="928.2969" y2="1026.0781"/><!--SRC=[TLLHQzim47xNhpWw61sq8R0zZ582Q-YwiBI5PdaORGYAVRL55Cb8IjlG5FOZzWltItQoRDcrspnPttrtkllkT772IOGDFbtFu58aHg_HA9GdC9ySmRUYi4SmszbBhU0Zp2qQoLNAc5qBLN33Do25GhSh4BHnkMuPb4xHOW6VXotGSBNsu9SsMF1apJE4PmRqEwDJPlHMfMCjjJaz7Mk3en5CHPQx2uEetgRD9pLflEFlS7mzCPIMAQeRdVv6AVNZsmwXT7BvbGjBGhrpDUbIXxsc4hEAfqsAfkJ0cIId4ftbFDMFGcLmpwL5zi9OBS21B_K0Oib1aDlGaK6o24UximcNvRdjEvzuprA5oY_Hocg9qV71eTd4qufRaSIJsufkG2-M3rc9LWMrESec5qo5qoOUKs7NIw6ie_pGT0C6CNt8AEjpB6cZLQyYaXLcT2mrgKGE7f4Zb7075LY6ya2TpyjhhXIhLzJ4kE70BXfWIrSiQtdp1N0BMvkqGjskX8B2w8p6rfPs0gnFkcaI71-F6fdW1CRNLzyd5ykVvpTNvzFbxCVvTCfQlGdys1lMk9Q6LXCxbgfb7RJVWWwXQLd749j0EOVlfHVpy5ENM4yEyShFciQgbFg9j_7cVjPyzrqwfZYjh5zXpvcrQkdROlgzEwDbC1ZvpbE17uHAv3P5E0mDlbCLu4U3nZD7JcyS_ltv2mzenFsEPF0pKGOF8Qg1WaV3YmADPVMCrXpcUVxArjCcFw4S39- -3i6HuvqwD5lbn0QFQBCwIFIc41AFFK9NIinGfM3y1c9x23jd3rE-e-JsXCJ5IEXyqa2TBKXM_znBUxNo2Ah-0A9Js74-KdoXhOX-HOFFmNYKqWh9iVy0]--></g></svg>