<?xml version="1.0" encoding="us-ascii" standalone="no"?><svg xmlns="http://www.w3.org/2000/svg" xmlns:xlink="http://www.w3.org/1999/xlink" contentStyleType="text/css" height="434px" preserveAspectRatio="none" style="width:558px;height:434px;background:#FFFFFF;" version="1.1" viewBox="0 0 558 434" width="558px" zoomAndPan="magnify"><defs/><g><text fill="#000000" font-family="sans-serif" font-size="14" font-weight="bold" lengthAdjust="spacing" textLength="281" x="131.5" y="22.9951">mexOS Microkernel: User &amp; Include</text><!--cluster Include--><g id="cluster_Include"><path d="M8.5,86.2969 L66.5,86.2969 A3.75,3.75 0 0 1 69,88.7969 L76,108.5938 L293.5,108.5938 A2.5,2.5 0 0 1 296,111.0938 L296,330.7969 A2.5,2.5 0 0 1 293.5,333.2969 L8.5,333.2969 A2.5,2.5 0 0 1 6,330.7969 L6,88.7969 A2.5,2.5 0 0 1 8.5,86.2969 " fill="#D3D3D3" style="stroke:#000000;stroke-width:1.5;"/><line style="stroke:#000000;stroke-width:1.5;" x1="6" x2="76" y1="108.5938" y2="108.5938"/><text fill="#000000" font-family="sans-serif" font-size="14" font-weight="bold" lengthAdjust="spacing" textLength="57" x="10" y="101.292">Include</text><text fill="#000000" font-family="sans-serif" font-size="14" font-style="italic" lengthAdjust="spacing" textLength="69" x="120.5" y="123.5889">&#171;Include&#187;</text></g><!--cluster User Space--><g id="cluster_User Space"><path d="M351.5,43.2969 L442.5,43.2969 A3.75,3.75 0 0 1 445,45.7969 L452,65.5938 L548.5,65.5938 A2.5,2.5 0 0 1 551,68.0938 L551,236.7969 A2.5,2.5 0 0 1 548.5,239.2969 L351.5,239.2969 A2.5,2.5 0 0 1 349,236.7969 L349,45.7969 A2.5,2.5 0 0 1 351.5,43.2969 " fill="#FFFFFF" style="stroke:#000000;stroke-width:1.5;"/><line style="stroke:#000000;stroke-width:1.5;" x1="349" x2="452" y1="65.5938" y2="65.5938"/><text fill="#000000" font-family="sans-serif" font-size="14" font-weight="bold" lengthAdjust="spacing" textLength="90" x="353" y="58.292">User Space</text><text fill="#000000" font-family="sans-serif" font-size="14" font-style="italic" lengthAdjust="spacing" textLength="49" x="429.5" y="80.5889">&#171;User&#187;</text></g><!--cluster lib--><g id="cluster_lib"><path d="M391.5,110.2969 L410.5,110.2969 A3.75,3.75 0 0 1 413,112.7969 L420,132.5938 L516.5,132.5938 A2.5,2.5 0 0 1 519,135.0938 L519,204.7969 A2.5,2.5 0 0 1 516.5,207.2969 L391.5,207.2969 A2.5,2.5 0 0 1 389,204.7969 L389,112.7969 A2.5,2.5 0 0 1 391.5,110.2969 " fill="none" style="stroke:#000000;stroke-width:1.5;"/><line style="stroke:#000000;stroke-width:1.5;" x1="389" x2="420" y1="132.5938" y2="132.5938"/><text fill="#000000" font-family="sans-serif" font-size="14" font-weight="bold" lengthAdjust="spacing" textLength="18" x="393" y="125.292">lib</text></g><!--entity config.h--><g id="elem_config.h"><rect fill="#F1F1F1" height="46.2969" rx="2.5" ry="2.5" style="stroke:#181818;stroke-width:0.5;" width="95" x="30.5" y="145.2969"/><rect fill="#F1F1F1" height="10" style="stroke:#181818;stroke-width:0.5;" width="15" x="105.5" y="150.2969"/><rect fill="#F1F1F1" height="2" style="stroke:#181818;stroke-width:0.5;" width="4" x="103.5" y="152.2969"/><rect fill="#F1F1F1" height="2" style="stroke:#181818;stroke-width:0.5;" width="4" x="103.5" y="156.2969"/><text fill="#000000" font-family="sans-serif" font-size="14" lengthAdjust="spacing" textLength="55" x="45.5" y="178.292">config.h</text></g><!--entity string.h--><g id="elem_string.h"><rect fill="#F1F1F1" height="46.2969" rx="2.5" ry="2.5" style="stroke:#181818;stroke-width:0.5;" width="92" x="161" y="145.2969"/><rect fill="#F1F1F1" height="10" style="stroke:#181818;stroke-width:0.5;" width="15" x="233" y="150.2969"/><rect fill="#F1F1F1" height="2" style="stroke:#181818;stroke-width:0.5;" width="4" x="231" y="152.2969"/><rect fill="#F1F1F1" height="2" style="stroke:#181818;stroke-width:0.5;" width="4" x="231" y="156.2969"/><text fill="#000000" font-family="sans-serif" font-size="14" lengthAdjust="spacing" textLength="52" x="176" y="178.292">string.h</text></g><!--entity types.h--><g id="elem_types.h"><rect fill="#F1F1F1" height="46.2969" rx="2.5" ry="2.5" style="stroke:#181818;stroke-width:0.5;" width="91" x="32.5" y="263.2969"/><rect fill="#F1F1F1" height="10" style="stroke:#181818;stroke-width:0.5;" width="15" x="103.5" y="268.2969"/><rect fill="#F1F1F1" height="2" style="stroke:#181818;stroke-width:0.5;" width="4" x="101.5" y="270.2969"/><rect fill="#F1F1F1" height="2" style="stroke:#181818;stroke-width:0.5;" width="4" x="101.5" y="274.2969"/><text fill="#000000" font-family="sans-serif" font-size="14" lengthAdjust="spacing" textLength="51" x="47.5" y="296.292">types.h</text></g><!--entity syscall.h--><g id="elem_syscall.h"><rect fill="#F1F1F1" height="46.2969" rx="2.5" ry="2.5" style="stroke:#181818;stroke-width:0.5;" width="98" x="405" y="145.2969"/><rect fill="#F1F1F1" height="10" style="stroke:#181818;stroke-width:0.5;" width="15" x="483" y="150.2969"/><rect fill="#F1F1F1" height="2" style="stroke:#181818;stroke-width:0.5;" width="4" x="481" y="152.2969"/><rect fill="#F1F1F1" height="2" style="stroke:#181818;stroke-width:0.5;" width="4" x="481" y="156.2969"/><text fill="#000000" font-family="sans-serif" font-size="14" lengthAdjust="spacing" textLength="58" x="420" y="178.292">syscall.h</text></g><!--entity Core--><g id="elem_Core"><rect fill="#F1F1F1" height="46.2969" rx="2.5" ry="2.5" style="stroke:#181818;stroke-width:0.5;" width="73" x="320.5" y="263.2969"/><rect fill="#F1F1F1" height="10" style="stroke:#181818;stroke-width:0.5;" width="15" x="373.5" y="268.2969"/><rect fill="#F1F1F1" height="2" style="stroke:#181818;stroke-width:0.5;" width="4" x="371.5" y="270.2969"/><rect fill="#F1F1F1" height="2" style="stroke:#181818;stroke-width:0.5;" width="4" x="371.5" y="274.2969"/><text fill="#000000" font-family="sans-serif" font-size="14" lengthAdjust="spacing" textLength="33" x="335.5" y="296.292">Core</text></g><!--link Include to Core--><g id="link_Include_Core"><path d="M296.0137,168.2969 C296.2919,168.2969 296.5754,168.2969 296.864,168.2969 C297.441,168.2969 298.0382,168.2969 298.6528,168.2969 C303.57,168.2969 309.6088,168.2969 315.475,168.2969 C327.2075,168.2969 338.25,168.2969 338.25,168.2969 C338.25,168.2969 338.25,258.2669 338.25,258.2669 " fill="none" id="Include-to-Core" style="stroke:#181818;stroke-width:1.0;"/><polygon fill="#181818" points="338.25,263.2669,342.25,254.2669,338.25,258.2669,334.25,254.2669,338.25,263.2669" style="stroke:#181818;stroke-width:1.0;"/></g><!--link User Space to Core--><g id="link_User Space_Core"><path d="M357,239.5981 C357,239.7421 357,239.8855 357,240.0284 C357,240.3142 357,240.5976 357,240.8787 C357,242.003 357,243.0893 357,244.1322 C357,252.475 357,258.0369 357,258.0369 " fill="none" id="User Space-to-Core" style="stroke:#181818;stroke-width:1.0;"/><polygon fill="#181818" points="357,263.0369,361,254.0369,357,258.0369,353,254.0369,357,263.0369" style="stroke:#181818;stroke-width:1.0;"/></g><rect fill="#DDDDDD" height="62.8906" id="_legend" rx="7.5" ry="7.5" style="stroke:#000000;stroke-width:1.0;" width="216" x="316" y="351.2969"/><text fill="#000000" font-family="sans-serif" font-size="14" lengthAdjust="spacing" textLength="36" x="325" y="371.292">Color</text><text fill="#000000" font-family="sans-serif" font-size="14" lengthAdjust="spacing" textLength="36" x="417" y="371.292">Layer</text><text fill="#000000" font-family="sans-serif" font-size="14" lengthAdjust="spacing" textLength="64" x="325" y="387.5889">LightGray</text><text fill="#000000" font-family="sans-serif" font-size="14" lengthAdjust="spacing" textLength="106" x="417" y="387.5889">Kernel Headers</text><text fill="#000000" font-family="sans-serif" font-size="14" lengthAdjust="spacing" textLength="84" x="325" y="403.8857">LightOrange</text><text fill="#000000" font-family="sans-serif" font-size="14" lengthAdjust="spacing" textLength="79" x="417" y="403.8857">User Space</text><line style="stroke:#000000;stroke-width:1.0;" x1="321" x2="527" y1="358.2969" y2="358.2969"/><line style="stroke:#000000;stroke-width:1.0;" x1="321" x2="527" y1="374.5938" y2="374.5938"/><line style="stroke:#000000;stroke-width:1.0;" x1="321" x2="527" y1="390.8906" y2="390.8906"/><line style="stroke:#000000;stroke-width:1.0;" x1="321" x2="527" y1="407.1875" y2="407.1875"/><line style="stroke:#000000;stroke-width:1.0;" x1="321" x2="321" y1="358.2969" y2="407.1875"/><line style="stroke:#000000;stroke-width:1.0;" x1="413" x2="413" y1="358.2969" y2="407.1875"/><line style="stroke:#000000;stroke-width:1.0;" x1="527" x2="527" y1="358.2969" y2="407.1875"/><!--SRC=[RL7BReCm4BpxArOSsbFw0LN48QdKLgNA0VM4EBYmCHQEZTP4BIhvzowOLwLoGJCxExCChMuDmWM_Jocywu9SZMJHFCA7Hu8xUBM5kPOeXA-rRIJ92nXjiUqQ14TjvJQ3HXQrL0W_0lWvC5BahhOyEkDelv-iuXWIhQhscMJtlt28dbKdabPXq3agaKOD70mlZMnQoT9zQQlWB8r7SHDYlYEQ4YFOXeVhiiBPirOFLHwWRuaz5ZXydn_Grcwi96KuEavN1hj5O_HdD771j_E5D6OslWs6z_243TeIRQ7HYsowBOVTBeRiw0XpaQrXVtXUJb3niZ3Z2sXeIVGGUkaXaHqlzimiBJFxDlvLU4795Vfr7EfbmHh7G_ODxhy0]--></g></svg>