<?xml version="1.0" encoding="us-ascii" standalone="no"?><svg xmlns="http://www.w3.org/2000/svg" xmlns:xlink="http://www.w3.org/1999/xlink" contentStyleType="text/css" height="461px" preserveAspectRatio="none" style="width:927px;height:461px;background:#FFFFFF;" version="1.1" viewBox="0 0 927 461" width="927px" zoomAndPan="magnify"><defs/><g><text fill="#000000" font-family="sans-serif" font-size="14" font-weight="bold" lengthAdjust="spacing" textLength="380" x="266.5" y="22.9951">mexOS Microkernel: Userland &amp; Kernel Headers</text><!--cluster Include--><g id="cluster_Include"><path d="M8.5,86.2969 L66.5,86.2969 A3.75,3.75 0 0 1 69,88.7969 L76,108.5938 L293.5,108.5938 A2.5,2.5 0 0 1 296,111.0938 L296,333.7969 A2.5,2.5 0 0 1 293.5,336.2969 L8.5,336.2969 A2.5,2.5 0 0 1 6,333.7969 L6,88.7969 A2.5,2.5 0 0 1 8.5,86.2969 " fill="#D3D3D3" style="stroke:#000000;stroke-width:1.5;"/><line style="stroke:#000000;stroke-width:1.5;" x1="6" x2="76" y1="108.5938" y2="108.5938"/><text fill="#000000" font-family="sans-serif" font-size="14" font-weight="bold" lengthAdjust="spacing" textLength="57" x="10" y="101.292">Include</text><text fill="#000000" font-family="sans-serif" font-size="14" font-style="italic" lengthAdjust="spacing" textLength="69" x="120.5" y="123.5889">&#171;Include&#187;</text></g><!--cluster User Space--><g id="cluster_User Space"><path d="M420.5,43.2969 L511.5,43.2969 A3.75,3.75 0 0 1 514,45.7969 L521,65.5938 L798.5,65.5938 A2.5,2.5 0 0 1 801,68.0938 L801,357.7969 A2.5,2.5 0 0 1 798.5,360.2969 L420.5,360.2969 A2.5,2.5 0 0 1 418,357.7969 L418,45.7969 A2.5,2.5 0 0 1 420.5,43.2969 " fill="#FFFFFF" style="stroke:#000000;stroke-width:1.5;"/><line style="stroke:#000000;stroke-width:1.5;" x1="418" x2="521" y1="65.5938" y2="65.5938"/><text fill="#000000" font-family="sans-serif" font-size="14" font-weight="bold" lengthAdjust="spacing" textLength="90" x="422" y="58.292">User Space</text><text fill="#000000" font-family="sans-serif" font-size="14" font-style="italic" lengthAdjust="spacing" textLength="49" x="589" y="80.5889">&#171;User&#187;</text></g><!--cluster init--><g id="cluster_init"><path d="M550.5,110.2969 L575.5,110.2969 A3.75,3.75 0 0 1 578,112.7969 L585,132.5938 L758.5,132.5938 A2.5,2.5 0 0 1 761,135.0938 L761,204.7969 A2.5,2.5 0 0 1 758.5,207.2969 L550.5,207.2969 A2.5,2.5 0 0 1 548,204.7969 L548,112.7969 A2.5,2.5 0 0 1 550.5,110.2969 " fill="none" style="stroke:#000000;stroke-width:1.5;"/><line style="stroke:#000000;stroke-width:1.5;" x1="548" x2="585" y1="132.5938" y2="132.5938"/><text fill="#000000" font-family="sans-serif" font-size="14" font-weight="bold" lengthAdjust="spacing" textLength="24" x="552" y="125.292">init</text></g><!--cluster lib--><g id="cluster_lib"><path d="M519.5,231.2969 L538.5,231.2969 A3.75,3.75 0 0 1 541,233.7969 L548,253.5938 L758.5,253.5938 A2.5,2.5 0 0 1 761,256.0938 L761,325.7969 A2.5,2.5 0 0 1 758.5,328.2969 L519.5,328.2969 A2.5,2.5 0 0 1 517,325.7969 L517,233.7969 A2.5,2.5 0 0 1 519.5,231.2969 " fill="none" style="stroke:#000000;stroke-width:1.5;"/><line style="stroke:#000000;stroke-width:1.5;" x1="517" x2="548" y1="253.5938" y2="253.5938"/><text fill="#000000" font-family="sans-serif" font-size="14" font-weight="bold" lengthAdjust="spacing" textLength="18" x="521" y="246.292">lib</text></g><!--entity config.h--><g id="elem_config.h"><rect fill="#F1F1F1" height="46.2969" rx="2.5" ry="2.5" style="stroke:#181818;stroke-width:0.5;" width="95" x="30.5" y="145.2969"/><rect fill="#F1F1F1" height="10" style="stroke:#181818;stroke-width:0.5;" width="15" x="105.5" y="150.2969"/><rect fill="#F1F1F1" height="2" style="stroke:#181818;stroke-width:0.5;" width="4" x="103.5" y="152.2969"/><rect fill="#F1F1F1" height="2" style="stroke:#181818;stroke-width:0.5;" width="4" x="103.5" y="156.2969"/><text fill="#000000" font-family="sans-serif" font-size="14" lengthAdjust="spacing" textLength="55" x="45.5" y="178.292">config.h</text></g><!--entity string.h--><g id="elem_string.h"><rect fill="#F1F1F1" height="46.2969" rx="2.5" ry="2.5" style="stroke:#181818;stroke-width:0.5;" width="92" x="161" y="145.2969"/><rect fill="#F1F1F1" height="10" style="stroke:#181818;stroke-width:0.5;" width="15" x="233" y="150.2969"/><rect fill="#F1F1F1" height="2" style="stroke:#181818;stroke-width:0.5;" width="4" x="231" y="152.2969"/><rect fill="#F1F1F1" height="2" style="stroke:#181818;stroke-width:0.5;" width="4" x="231" y="156.2969"/><text fill="#000000" font-family="sans-serif" font-size="14" lengthAdjust="spacing" textLength="52" x="176" y="178.292">string.h</text></g><!--entity types.h--><g id="elem_types.h"><rect fill="#F1F1F1" height="46.2969" rx="2.5" ry="2.5" style="stroke:#181818;stroke-width:0.5;" width="91" x="32.5" y="266.2969"/><rect fill="#F1F1F1" height="10" style="stroke:#181818;stroke-width:0.5;" width="15" x="103.5" y="271.2969"/><rect fill="#F1F1F1" height="2" style="stroke:#181818;stroke-width:0.5;" width="4" x="101.5" y="273.2969"/><rect fill="#F1F1F1" height="2" style="stroke:#181818;stroke-width:0.5;" width="4" x="101.5" y="277.2969"/><text fill="#000000" font-family="sans-serif" font-size="14" lengthAdjust="spacing" textLength="51" x="47.5" y="299.292">types.h</text></g><!--entity user.ld--><g id="elem_user.ld"><rect fill="#F1F1F1" height="46.2969" rx="2.5" ry="2.5" style="stroke:#181818;stroke-width:0.5;" width="87" x="442.5" y="145.2969"/><rect fill="#F1F1F1" height="10" style="stroke:#181818;stroke-width:0.5;" width="15" x="509.5" y="150.2969"/><rect fill="#F1F1F1" height="2" style="stroke:#181818;stroke-width:0.5;" width="4" x="507.5" y="152.2969"/><rect fill="#F1F1F1" height="2" style="stroke:#181818;stroke-width:0.5;" width="4" x="507.5" y="156.2969"/><text fill="#000000" font-family="sans-serif" font-size="14" lengthAdjust="spacing" textLength="47" x="457.5" y="178.292">user.ld</text></g><!--entity init.c--><g id="elem_init.c"><rect fill="#F1F1F1" height="46.2969" rx="2.5" ry="2.5" style="stroke:#181818;stroke-width:0.5;" width="72" x="673" y="145.2969"/><rect fill="#F1F1F1" height="10" style="stroke:#181818;stroke-width:0.5;" width="15" x="725" y="150.2969"/><rect fill="#F1F1F1" height="2" style="stroke:#181818;stroke-width:0.5;" width="4" x="723" y="152.2969"/><rect fill="#F1F1F1" height="2" style="stroke:#181818;stroke-width:0.5;" width="4" x="723" y="156.2969"/><text fill="#000000" font-family="sans-serif" font-size="14" lengthAdjust="spacing" textLength="32" x="688" y="178.292">init.c</text></g><!--entity init.h--><g id="elem_init.h"><rect fill="#F1F1F1" height="46.2969" rx="2.5" ry="2.5" style="stroke:#181818;stroke-width:0.5;" width="73" x="564.5" y="145.2969"/><rect fill="#F1F1F1" height="10" style="stroke:#181818;stroke-width:0.5;" width="15" x="617.5" y="150.2969"/><rect fill="#F1F1F1" height="2" style="stroke:#181818;stroke-width:0.5;" width="4" x="615.5" y="152.2969"/><rect fill="#F1F1F1" height="2" style="stroke:#181818;stroke-width:0.5;" width="4" x="615.5" y="156.2969"/><text fill="#000000" font-family="sans-serif" font-size="14" lengthAdjust="spacing" textLength="33" x="579.5" y="178.292">init.h</text></g><!--entity crt0.s--><g id="elem_crt0.s"><rect fill="#F1F1F1" height="46.2969" rx="2.5" ry="2.5" style="stroke:#181818;stroke-width:0.5;" width="79" x="666.5" y="266.2969"/><rect fill="#F1F1F1" height="10" style="stroke:#181818;stroke-width:0.5;" width="15" x="725.5" y="271.2969"/><rect fill="#F1F1F1" height="2" style="stroke:#181818;stroke-width:0.5;" width="4" x="723.5" y="273.2969"/><rect fill="#F1F1F1" height="2" style="stroke:#181818;stroke-width:0.5;" width="4" x="723.5" y="277.2969"/><text fill="#000000" font-family="sans-serif" font-size="14" lengthAdjust="spacing" textLength="39" x="681.5" y="299.292">crt0.s</text></g><!--entity syscall.h--><g id="elem_syscall.h"><rect fill="#F1F1F1" height="46.2969" rx="2.5" ry="2.5" style="stroke:#181818;stroke-width:0.5;" width="98" x="533" y="266.2969"/><rect fill="#F1F1F1" height="10" style="stroke:#181818;stroke-width:0.5;" width="15" x="611" y="271.2969"/><rect fill="#F1F1F1" height="2" style="stroke:#181818;stroke-width:0.5;" width="4" x="609" y="273.2969"/><rect fill="#F1F1F1" height="2" style="stroke:#181818;stroke-width:0.5;" width="4" x="609" y="277.2969"/><text fill="#000000" font-family="sans-serif" font-size="14" lengthAdjust="spacing" textLength="58" x="548" y="299.292">syscall.h</text></g><!--entity kernel.h--><g id="elem_kernel.h"><rect fill="#F1F1F1" height="46.2969" rx="2.5" ry="2.5" style="stroke:#181818;stroke-width:0.5;" width="96" x="825" y="266.2969"/><rect fill="#F1F1F1" height="10" style="stroke:#181818;stroke-width:0.5;" width="15" x="901" y="271.2969"/><rect fill="#F1F1F1" height="2" style="stroke:#181818;stroke-width:0.5;" width="4" x="899" y="273.2969"/><rect fill="#F1F1F1" height="2" style="stroke:#181818;stroke-width:0.5;" width="4" x="899" y="277.2969"/><text fill="#000000" font-family="sans-serif" font-size="14" lengthAdjust="spacing" textLength="56" x="840" y="299.292">kernel.h</text></g><!--entity Core--><g id="elem_Core"><rect fill="#F1F1F1" height="46.2969" rx="2.5" ry="2.5" style="stroke:#181818;stroke-width:0.5;" width="73" x="320.5" y="266.2969"/><rect fill="#F1F1F1" height="10" style="stroke:#181818;stroke-width:0.5;" width="15" x="373.5" y="271.2969"/><rect fill="#F1F1F1" height="2" style="stroke:#181818;stroke-width:0.5;" width="4" x="371.5" y="273.2969"/><rect fill="#F1F1F1" height="2" style="stroke:#181818;stroke-width:0.5;" width="4" x="371.5" y="277.2969"/><text fill="#000000" font-family="sans-serif" font-size="14" lengthAdjust="spacing" textLength="33" x="335.5" y="299.292">Core</text></g><!--link init.c to syscall.h--><g id="link_init.c_syscall.h"><path d="M672.9,168.2969 C661.59,168.2969 652,168.2969 652,168.2969 C652,168.2969 652,289.2969 652,289.2969 C652,289.2969 636.38,289.2969 636.38,289.2969 " fill="none" id="init.c-to-syscall.h" style="stroke:#181818;stroke-width:1.0;"/><polygon fill="#181818" points="631.38,289.2969,640.38,293.2969,636.38,289.2969,640.38,285.2969,631.38,289.2969" style="stroke:#181818;stroke-width:1.0;"/></g><!--link User Space to kernel.h--><g id="link_User Space_kernel.h"><path d="M801.1315,289.2969 C801.2282,289.2969 801.3252,289.2969 801.4227,289.2969 C802.9825,289.2969 804.6463,289.2969 806.31,289.2969 C812.965,289.2969 819.62,289.2969 819.62,289.2969 " fill="none" id="User Space-to-kernel.h" style="stroke:#181818;stroke-width:1.0;"/><polygon fill="#181818" points="824.62,289.2969,815.62,285.2969,819.62,289.2969,815.62,293.2969,824.62,289.2969" style="stroke:#181818;stroke-width:1.0;"/></g><!--link Include to Core--><g id="link_Include_Core"><path d="M296.0963,289.2969 C296.294,289.2969 296.4936,289.2969 296.6948,289.2969 C298.305,289.2969 300.0225,289.2969 301.74,289.2969 C308.61,289.2969 315.48,289.2969 315.48,289.2969 " fill="none" id="Include-to-Core" style="stroke:#181818;stroke-width:1.0;"/><polygon fill="#181818" points="320.48,289.2969,311.48,285.2969,315.48,289.2969,311.48,293.2969,320.48,289.2969" style="stroke:#181818;stroke-width:1.0;"/></g><rect fill="#DDDDDD" height="62.8906" id="_legend" rx="7.5" ry="7.5" style="stroke:#000000;stroke-width:1.0;" width="216" x="685" y="378.2969"/><text fill="#000000" font-family="sans-serif" font-size="14" lengthAdjust="spacing" textLength="36" x="694" y="398.292">Color</text><text fill="#000000" font-family="sans-serif" font-size="14" lengthAdjust="spacing" textLength="36" x="786" y="398.292">Layer</text><text fill="#000000" font-family="sans-serif" font-size="14" lengthAdjust="spacing" textLength="64" x="694" y="414.5889">LightGray</text><text fill="#000000" font-family="sans-serif" font-size="14" lengthAdjust="spacing" textLength="106" x="786" y="414.5889">Kernel Headers</text><text fill="#000000" font-family="sans-serif" font-size="14" lengthAdjust="spacing" textLength="84" x="694" y="430.8857">LightOrange</text><text fill="#000000" font-family="sans-serif" font-size="14" lengthAdjust="spacing" textLength="79" x="786" y="430.8857">User Space</text><line style="stroke:#000000;stroke-width:1.0;" x1="690" x2="896" y1="385.2969" y2="385.2969"/><line style="stroke:#000000;stroke-width:1.0;" x1="690" x2="896" y1="401.5938" y2="401.5938"/><line style="stroke:#000000;stroke-width:1.0;" x1="690" x2="896" y1="417.8906" y2="417.8906"/><line style="stroke:#000000;stroke-width:1.0;" x1="690" x2="896" y1="434.1875" y2="434.1875"/><line style="stroke:#000000;stroke-width:1.0;" x1="690" x2="690" y1="385.2969" y2="434.1875"/><line style="stroke:#000000;stroke-width:1.0;" x1="782" x2="782" y1="385.2969" y2="434.1875"/><line style="stroke:#000000;stroke-width:1.0;" x1="896" x2="896" y1="385.2969" y2="434.1875"/><!--SRC=[ZLBBRi8m4BpxArOS-ZWGzLnHf19GYvgMgX4dnC5rbiJ2s94TrABIV-ycDe-WgiMNQ6TsLZERhMIb45RuEKdXMGfhbcWrgbkOEhIAwmmkuAc1u15vXjOnvfPIbzpo5IYfiTgK2CPMXJaYIYwMF4VuOa1lG5LkpLfdiL76zdfZBTGwmtuV4faNrOFbczyRQnUxhedbEaVVPonPQNfWe4ZKe6d1C_CXTGuBhXooRyOkuUwFH_Ju9Kwcmn5S-TnG-93N_obt0JiXIWUEK_dOCs7qGkPHCVUbgooPsvVrubnTdUDpcexUqjVxU7IsiNfra5BPU0kBzCRsFLBBgXF0nbCDH69-0WJ7vBEbLlAz9HQskedSaTXjdE1AdUXdQ_8IgIm47sA9EaCj93gsCm3TRh-bdntY1DB_i8OBYmz4R2pEwya9vZIPgUO3jhuXjWL_DLj8-8OcRWdPto2XxLi_qFxugE7WWqYQwwUp7m00]--></g></svg>